<?xml version="1.0" encoding="UTF-8" standalone="no"?>
<!DOCTYPE svg PUBLIC "-//W3C//DTD SVG 1.1//EN" "http://www.w3.org/Graphics/SVG/1.1/DTD/svg11.dtd">
<svg width="286" height="143" viewBox="0 0 286 143" version="1.1" xmlns="http://www.w3.org/2000/svg" xmlns:xlink="http://www.w3.org/1999/xlink" xml:space="preserve" xmlns:serif="http://www.serif.com/" style="fill-rule:evenodd;clip-rule:evenodd;stroke-linejoin:round;stroke-miterlimit:2;">
 <g transform="matrix(0.223871,0,0,0.223871,-292.87,-77.8671)">
 <g>
 <g>
 <g transform="matrix(1,0,0,1,-24.3763,-73.5344)">
 <g>
 <g transform="matrix(0.733621,0,0,0.733621,521.853,220.333)">
 <g transform="matrix(0.590859,0,0,0.590859,812.227,396.794)">
 <g transform="matrix(1.8753,0,0,1.77401,-450.176,-1602.93)">
 <path d="M1174.66,1400.66L1177.16,1400.66L1177.16,1371.52L1190.61,1396.82L1204.06,1371.52L1204.06,1400.66L1206.56,1400.66L1206.56,1366.32L1204.06,1366.32L1190.61,1391.62L1177.16,1366.32L1174.66,1366.32L1174.66,1400.66Z" style="fill:rgb(0,62,31);fill-rule:nonzero;"/>
 </g>
 <g transform="matrix(1.8753,0,0,1.77401,-450.176,-1602.93)">
 <path d="M1224.41,1361.77C1225.36,1361.77 1226.16,1360.96 1226.16,1360.02C1226.16,1359.07 1225.36,1358.27 1224.41,1358.27C1223.41,1358.27 1222.66,1359.07 1222.66,1360.02C1222.66,1360.96 1223.41,1361.77 1224.41,1361.77ZM1234.01,1361.77C1234.96,1361.77 1235.76,1360.96 1235.76,1360.02C1235.76,1359.07 1234.96,1358.27 1234.01,1358.27C1233.01,1358.27 1232.26,1359.07 1232.26,1360.02C1232.26,1360.96 1233.01,1361.77 1234.01,1361.77ZM1229.21,1401.27C1237.21,1401.27 1242.86,1395.37 1242.86,1387.07L1242.86,1366.32L1240.36,1366.32L1240.36,1387.07C1240.36,1393.96 1235.76,1398.87 1229.21,1398.87C1222.66,1398.87 1218.06,1393.96 1218.06,1387.07L1218.06,1366.32L1215.56,1366.32L1215.56,1387.07C1215.56,1395.37 1221.21,1401.27 1229.21,1401.27Z" style="fill:rgb(0,62,31);fill-rule:nonzero;"/>
 </g>
 <g transform="matrix(1.8753,0,0,1.77401,-450.176,-1602.93)">
 <path d="M1251.86,1400.66L1254.36,1400.66L1254.36,1370.32L1277.06,1400.66L1279.56,1400.66L1279.56,1366.32L1277.06,1366.32L1277.06,1396.66L1254.36,1366.32L1251.86,1366.32L1251.86,1400.66Z" style="fill:rgb(0,62,31);fill-rule:nonzero;"/>
 </g>
 <g transform="matrix(1.8753,0,0,1.77401,-450.176,-1602.93)">
 <path d="M1300.11,1401.21C1307.31,1401.21 1311.86,1397.12 1311.86,1391.66C1311.86,1386.41 1308.16,1383.87 1300.61,1382.07C1293.71,1380.41 1290.61,1378.66 1290.61,1375.27C1290.61,1371.16 1294.16,1368.07 1299.11,1368.07C1303.01,1368.07 1306.71,1369.71 1309.66,1372.52L1311.16,1370.57C1307.91,1367.52 1303.76,1365.66 1299.26,1365.66C1292.76,1365.66 1288.11,1369.82 1288.11,1375.46C1288.11,1380.32 1291.66,1382.66 1299.36,1384.41C1306.31,1386.07 1309.36,1388.07 1309.36,1391.87C1309.36,1395.82 1305.76,1398.82 1300.21,1398.82C1295.46,1398.82 1291.16,1396.87 1288.11,1393.82L1286.56,1395.77C1290.06,1399.21 1294.86,1401.21 1300.11,1401.21Z" style="fill:rgb(0,62,31);fill-rule:nonzero;"/>
 </g>
 <g transform="matrix(1.8753,0,0,1.77401,-450.176,-1602.93)">
 <path d="M1329.06,1400.66L1331.56,1400.66L1331.56,1368.77L1343.81,1368.77L1343.81,1366.32L1316.81,1366.32L1316.81,1368.77L1329.06,1368.77L1329.06,1400.66Z" style="fill:rgb(0,62,31);fill-rule:nonzero;"/>
 </g>
 <g transform="matrix(1.8753,0,0,1.77401,-450.176,-1602.93)">
 <path d="M1373.26,1368.77L1373.26,1366.32L1350.01,1366.32L1350.01,1400.66L1373.26,1400.66L1373.26,1398.21L1352.51,1398.21L1352.51,1384.37L1371.56,1384.37L1371.56,1381.96L1352.51,1381.96L1352.51,1368.77L1373.26,1368.77Z" style="fill:rgb(0,62,31);fill-rule:nonzero;"/>
 </g>
 <g transform="matrix(1.8753,0,0,1.77401,-450.176,-1602.93)">
 <path d="M1406.41,1376.96C1406.41,1370.71 1401.26,1366.32 1394.26,1366.32L1379.96,1366.32L1379.96,1400.66L1382.46,1400.66L1382.46,1387.66L1393.41,1387.66L1402.51,1400.66L1405.46,1400.66L1396.26,1387.52C1402.21,1386.77 1406.41,1382.62 1406.41,1376.96ZM1382.46,1368.77L1393.76,1368.77C1399.71,1368.77 1403.86,1372.07 1403.86,1376.96C1403.86,1381.91 1399.71,1385.21 1393.76,1385.21L1382.46,1385.21L1382.46,1368.77Z" style="fill:rgb(0,62,31);fill-rule:nonzero;"/>
 </g>
 </g>
 <g transform="matrix(1.23508,-0.0616358,0.0513317,1.0286,-587.737,155.588)">
 <g transform="matrix(-0.503841,0,0,0.320703,3114.2,721.268)">
 <g transform="matrix(4.17871,0,0,7.43215,1316.67,-1607.11)">
 <path d="M110.806,278.877L139.943,276.15L140.06,278.074L110.806,278.877Z" style="fill:rgb(0,62,31);fill-rule:nonzero;"/>
 </g>
 <g transform="matrix(3.31009,0,0,7.43215,1436.59,-1633.13)">
 <path d="M110.806,278.877L139.943,276.15L140.06,278.074L110.806,278.877Z" style="fill:rgb(0,62,31);fill-rule:nonzero;"/>
 </g>
 <g transform="matrix(2.71619,0,0,6.70224,1519.77,-1455.01)">
 <path d="M110.806,278.877L139.943,276.15L140.06,278.074L110.806,278.877Z" style="fill:rgb(0,62,31);fill-rule:nonzero;"/>
 </g>
 </g>
 <g transform="matrix(-0.901242,0,0,2.44369,2283.4,165.569)">
 <path d="M110.806,278.877L139.943,276.15L140.06,278.074L110.806,278.877Z" style="fill:rgb(0,62,31);fill-rule:nonzero;"/>
 </g>
 </g>
 <g transform="matrix(-1.30906,-0.065328,-0.0499897,1.00171,4698.47,186.153)">
 <g transform="matrix(-0.503841,0,0,0.320703,3114.2,721.268)">
 <g transform="matrix(4.17871,0,0,7.43215,1316.67,-1607.11)">
 <path d="M110.806,278.877L139.943,276.15L140.06,278.074L110.806,278.877Z" style="fill:rgb(0,62,31);fill-rule:nonzero;"/>
 </g>
 <g transform="matrix(3.31009,0,0,7.43215,1436.59,-1633.13)">
 <path d="M110.806,278.877L139.943,276.15L140.06,278.074L110.806,278.877Z" style="fill:rgb(0,62,31);fill-rule:nonzero;"/>
 </g>
 <g transform="matrix(2.71619,0,0,6.70224,1519.77,-1455.01)">
 <path d="M110.806,278.877L139.943,276.15L140.06,278.074L110.806,278.877Z" style="fill:rgb(0,62,31);fill-rule:nonzero;"/>
 </g>
 </g>
 <g transform="matrix(-0.901242,0,0,2.44369,2283.4,165.569)">
 <path d="M110.806,278.877L139.943,276.15L140.06,278.074L110.806,278.877Z" style="fill:rgb(0,62,31);fill-rule:nonzero;"/>
 </g>
 </g>
 </g>
 <g transform="matrix(1,0,0,1,0,-40.625)">
 <g transform="matrix(2.75547,-0.00626243,0.00544137,2.14256,758.491,-2745.33)">
 <path d="M332.109,1717.48C332.527,1717.75 332.902,1717.84 333.234,1717.77C333.567,1717.68 333.845,1717.41 334.068,1716.95C334.28,1716.51 334.327,1716.1 334.207,1715.71C334.088,1715.32 333.804,1714.98 333.357,1714.68C333.198,1714.58 333.064,1714.5 332.957,1714.43C332.85,1714.37 332.736,1714.32 332.615,1714.27L331.318,1716.96L332.109,1717.48ZM328.646,1722.54C328.52,1722.51 328.331,1722.43 328.081,1722.31C327.83,1722.19 327.59,1722.06 327.362,1721.91C327.133,1721.76 326.941,1721.61 326.787,1721.45C326.632,1721.3 326.52,1721.13 326.451,1720.95C326.382,1720.77 326.362,1720.56 326.392,1720.34C326.421,1720.12 326.509,1719.85 326.654,1719.55L330.597,1711.38C330.714,1711.13 330.862,1710.98 331.04,1710.92C331.219,1710.87 331.427,1710.86 331.665,1710.91C332.07,1710.99 332.505,1711.14 332.968,1711.36C333.431,1711.58 333.882,1711.83 334.32,1712.12C335.693,1713.01 336.577,1714.04 336.974,1715.2C337.371,1716.35 337.288,1717.52 336.724,1718.68C336.451,1719.25 336.127,1719.71 335.752,1720.07C335.378,1720.43 334.959,1720.67 334.497,1720.8C334.034,1720.93 333.528,1720.94 332.979,1720.82C332.43,1720.69 331.852,1720.43 331.245,1720.04L330.186,1719.35L328.646,1722.54Z" style="fill:rgb(0,62,31);fill-rule:nonzero;"/>
 </g>
 <g transform="matrix(2.75547,-0.00626243,0.00544137,2.14256,758.491,-2745.33)">
 <path d="M340.492,1729.74C340.364,1729.71 340.172,1729.65 339.916,1729.55C339.66,1729.45 339.414,1729.33 339.179,1729.19C338.943,1729.06 338.744,1728.92 338.582,1728.78C338.42,1728.64 338.3,1728.48 338.222,1728.3C338.143,1728.12 338.113,1727.92 338.132,1727.69C338.15,1727.47 338.224,1727.2 338.354,1726.89L342.308,1717.44C342.431,1717.48 342.624,1717.55 342.887,1717.65C343.151,1717.74 343.396,1717.86 343.621,1717.99C343.857,1718.12 344.056,1718.26 344.218,1718.4C344.38,1718.54 344.5,1718.7 344.578,1718.88C344.656,1719.06 344.686,1719.26 344.668,1719.49C344.65,1719.71 344.576,1719.98 344.446,1720.29L340.492,1729.74Z" style="fill:rgb(0,62,31);fill-rule:nonzero;"/>
 </g>
 <g transform="matrix(2.75547,-0.00626243,0.00544137,2.14256,758.491,-2745.33)">
 <path d="M349.597,1730.31L348.338,1733.84C348.209,1733.83 348.014,1733.77 347.754,1733.69C347.493,1733.61 347.241,1733.51 346.999,1733.39C346.757,1733.28 346.551,1733.15 346.382,1733.02C346.213,1732.89 346.087,1732.74 346.006,1732.57C345.924,1732.4 345.886,1732.2 345.893,1731.97C345.9,1731.75 345.96,1731.48 346.074,1731.16L349.163,1722.5C349.254,1722.24 349.386,1722.07 349.557,1721.99C349.729,1721.9 349.935,1721.87 350.177,1721.89C350.587,1721.91 351.042,1722.01 351.54,1722.17C352.038,1722.33 352.556,1722.54 353.093,1722.8C354.547,1723.5 355.516,1724.39 356,1725.45C356.483,1726.52 356.509,1727.66 356.076,1728.87C355.805,1729.63 355.405,1730.2 354.875,1730.58C354.346,1730.95 353.797,1731.18 353.228,1731.25C353.393,1732.03 353.566,1732.78 353.747,1733.48C353.928,1734.19 354.047,1734.81 354.104,1735.34C353.846,1735.71 353.537,1735.95 353.177,1736.04C352.817,1736.13 352.463,1736.1 352.115,1735.93C351.883,1735.82 351.694,1735.69 351.548,1735.55C351.401,1735.4 351.284,1735.25 351.197,1735.07C351.11,1734.9 351.042,1734.71 350.993,1734.5C350.945,1734.29 350.906,1734.07 350.877,1733.84L350.435,1730.72L349.597,1730.31ZM351.465,1728.35C351.865,1728.54 352.224,1728.58 352.541,1728.45C352.858,1728.32 353.1,1728.03 353.266,1727.56C353.432,1727.09 353.429,1726.68 353.256,1726.32C353.083,1725.95 352.717,1725.63 352.159,1725.37C352.001,1725.29 351.872,1725.23 351.773,1725.2C351.674,1725.17 351.562,1725.13 351.437,1725.1L350.454,1727.86L351.465,1728.35Z" style="fill:rgb(0,62,31);fill-rule:nonzero;"/>
 </g>
 <g transform="matrix(2.75547,-0.00626243,0.00544137,2.14256,758.491,-2745.33)">
 <path d="M367.43,1741.66C367.228,1741.78 366.97,1741.83 366.656,1741.81C366.342,1741.8 365.985,1741.71 365.585,1741.55C365.185,1741.4 364.827,1741.18 364.51,1740.9C364.193,1740.62 363.997,1740.18 363.923,1739.56L363.418,1735.12C363.368,1734.67 363.328,1734.24 363.299,1733.85C363.269,1733.45 363.244,1732.99 363.223,1732.48L363.12,1732.46C362.967,1733.16 362.792,1733.86 362.594,1734.57C362.396,1735.27 362.199,1735.97 362.003,1736.65L361.158,1739.57C361.028,1739.56 360.836,1739.53 360.582,1739.47C360.328,1739.41 360.082,1739.34 359.844,1739.25C359.606,1739.15 359.401,1739.05 359.228,1738.94C359.055,1738.83 358.925,1738.7 358.839,1738.54C358.753,1738.38 358.705,1738.19 358.697,1737.97C358.688,1737.75 358.729,1737.48 358.82,1737.17L361.544,1727.73C361.768,1727.54 362.055,1727.44 362.405,1727.44C362.755,1727.43 363.109,1727.5 363.465,1727.64C363.865,1727.8 364.226,1728.02 364.546,1728.31C364.867,1728.59 365.06,1729.04 365.128,1729.64L365.649,1734.08C365.699,1734.54 365.738,1734.96 365.768,1735.36C365.798,1735.75 365.823,1736.21 365.844,1736.72L365.93,1736.73C366.083,1736.04 366.252,1735.35 366.438,1734.66C366.623,1733.98 366.814,1733.3 367.01,1732.62L367.893,1729.56C368.023,1729.57 368.215,1729.6 368.469,1729.66C368.723,1729.72 368.969,1729.79 369.207,1729.89C369.683,1730.07 370.017,1730.31 370.209,1730.6C370.401,1730.9 370.409,1731.35 370.231,1731.97L367.43,1741.66Z" style="fill:rgb(0,62,31);fill-rule:nonzero;"/>
 </g>
 <g transform="matrix(2.75547,-0.00626243,0.00544137,2.14256,758.491,-2745.33)">
 <path d="M377.424,1733.25C377.641,1733.18 377.952,1733.14 378.359,1733.14C378.765,1733.14 379.162,1733.2 379.548,1733.32C380.1,1733.49 380.567,1733.73 380.95,1734.05C381.333,1734.36 381.541,1734.74 381.572,1735.17C381.621,1735.9 381.661,1736.74 381.694,1737.7C381.726,1738.66 381.752,1739.64 381.772,1740.65C381.791,1741.67 381.808,1742.67 381.822,1743.65C381.837,1744.64 381.847,1745.51 381.854,1746.27C381.681,1746.41 381.45,1746.49 381.161,1746.52C380.871,1746.55 380.544,1746.51 380.18,1746.39C379.915,1746.32 379.698,1746.22 379.527,1746.11C379.357,1746.01 379.225,1745.88 379.132,1745.75C379.04,1745.61 378.976,1745.45 378.942,1745.26C378.908,1745.07 378.888,1744.86 378.881,1744.62L378.882,1743.2L375.886,1742.29C375.712,1742.65 375.534,1743.02 375.353,1743.4C375.172,1743.79 374.995,1744.16 374.82,1744.52C374.651,1744.53 374.476,1744.54 374.295,1744.53C374.113,1744.52 373.901,1744.48 373.659,1744.41C373.096,1744.24 372.705,1744 372.485,1743.69C372.265,1743.38 372.2,1743.03 372.289,1742.63C372.33,1742.45 372.392,1742.28 372.477,1742.12C372.561,1741.95 372.659,1741.75 372.769,1741.53C372.924,1741.2 373.128,1740.81 373.382,1740.33C373.635,1739.86 373.912,1739.35 374.212,1738.81C374.511,1738.26 374.826,1737.7 375.155,1737.13C375.484,1736.56 375.794,1736.02 376.085,1735.51C376.376,1735 376.64,1734.55 376.876,1734.15C377.112,1733.76 377.295,1733.46 377.424,1733.25ZM378.852,1736.34C378.576,1736.83 378.267,1737.38 377.925,1737.98C377.583,1738.58 377.259,1739.2 376.951,1739.84L379.004,1740.46C379.005,1739.72 379,1739 378.989,1738.29C378.978,1737.58 378.965,1736.94 378.951,1736.37L378.852,1736.34Z" style="fill:rgb(0,62,31);fill-rule:nonzero;"/>
 </g>
 <g transform="matrix(2.75547,-0.00626243,0.00544137,2.14256,758.491,-2745.33)">
 <path d="M395.74,1749.56C395.553,1749.71 395.303,1749.8 394.99,1749.83C394.677,1749.86 394.313,1749.83 393.899,1749.74C393.484,1749.64 393.104,1749.48 392.759,1749.26C392.413,1749.03 392.168,1748.62 392.024,1748.02L391.018,1743.69C390.917,1743.25 390.829,1742.84 390.755,1742.45C390.68,1742.06 390.603,1741.61 390.524,1741.11L390.42,1741.11C390.348,1741.82 390.254,1742.54 390.138,1743.27C390.022,1744 389.906,1744.72 389.789,1745.42L389.285,1748.45C389.155,1748.46 388.961,1748.46 388.702,1748.44C388.444,1748.42 388.192,1748.39 387.945,1748.33C387.699,1748.28 387.484,1748.21 387.3,1748.13C387.116,1748.05 386.972,1747.93 386.869,1747.79C386.765,1747.64 386.696,1747.46 386.663,1747.24C386.629,1747.03 386.639,1746.76 386.694,1746.43L388.32,1736.66C388.52,1736.43 388.793,1736.29 389.14,1736.23C389.486,1736.18 389.844,1736.19 390.214,1736.27C390.628,1736.37 391.01,1736.53 391.36,1736.77C391.711,1737 391.953,1737.41 392.088,1737.99L393.111,1742.32C393.212,1742.76 393.3,1743.18 393.374,1743.57C393.449,1743.95 393.526,1744.4 393.605,1744.9L393.692,1744.9C393.764,1744.19 393.853,1743.48 393.959,1742.77C394.065,1742.07 394.176,1741.36 394.294,1740.66L394.82,1737.49C394.95,1737.48 395.144,1737.49 395.403,1737.5C395.661,1737.52 395.914,1737.56 396.16,1737.61C396.653,1737.72 397.011,1737.91 397.235,1738.17C397.459,1738.43 397.518,1738.88 397.412,1739.52L395.74,1749.56Z" style="fill:rgb(0,62,31);fill-rule:nonzero;"/>
 </g>
 <g transform="matrix(2.75547,-0.00626243,0.00544137,2.14256,758.491,-2745.33)">
 <path d="M410.811,1750.44C410.766,1750.85 410.671,1751.15 410.524,1751.33C410.378,1751.5 410.159,1751.66 409.867,1751.81C409.697,1751.89 409.488,1751.96 409.24,1752.03C408.991,1752.09 408.722,1752.14 408.431,1752.17C408.14,1752.2 407.837,1752.21 407.521,1752.2C407.206,1752.19 406.895,1752.17 406.59,1752.12C405.775,1752 405.026,1751.76 404.341,1751.39C403.657,1751.03 403.08,1750.55 402.611,1749.95C402.143,1749.36 401.798,1748.64 401.578,1747.82C401.359,1747 401.305,1746.08 401.418,1745.05C401.537,1743.97 401.808,1743.05 402.23,1742.3C402.652,1741.55 403.167,1740.94 403.775,1740.49C404.382,1740.04 405.054,1739.74 405.79,1739.58C406.526,1739.42 407.268,1739.4 408.014,1739.51C409.089,1739.67 409.918,1740 410.502,1740.49C411.086,1740.99 411.342,1741.56 411.271,1742.2C411.233,1742.55 411.127,1742.83 410.952,1743.06C410.778,1743.29 410.586,1743.46 410.378,1743.58C410.117,1743.34 409.785,1743.09 409.382,1742.84C408.978,1742.58 408.511,1742.41 407.979,1742.34C407.029,1742.19 406.239,1742.4 405.609,1742.94C404.979,1743.49 404.603,1744.33 404.48,1745.44C404.413,1746.05 404.432,1746.59 404.536,1747.05C404.64,1747.51 404.806,1747.91 405.035,1748.23C405.264,1748.55 405.541,1748.81 405.865,1748.99C406.189,1749.18 406.544,1749.31 406.928,1749.36C407.177,1749.4 407.401,1749.41 407.599,1749.38C407.797,1749.36 407.951,1749.32 408.06,1749.27L408.264,1747.41L406.449,1747.14C406.397,1746.99 406.353,1746.79 406.317,1746.54C406.28,1746.3 406.277,1746.04 406.306,1745.78C406.358,1745.3 406.489,1744.98 406.699,1744.79C406.909,1744.61 407.161,1744.54 407.455,1744.59L410.323,1745.01C410.663,1745.06 410.914,1745.21 411.076,1745.46C411.239,1745.7 411.299,1746.02 411.255,1746.42L410.811,1750.44Z" style="fill:rgb(0,62,31);fill-rule:nonzero;"/>
 </g>
 <g transform="matrix(2.75547,-0.00626243,0.00544137,2.14256,758.491,-2745.33)">
 <path d="M415.774,1746.92C415.831,1745.88 416.021,1744.98 416.343,1744.2C416.666,1743.43 417.084,1742.79 417.597,1742.29C418.11,1741.79 418.702,1741.43 419.372,1741.2C420.042,1740.97 420.758,1740.88 421.521,1740.94C422.283,1741 422.984,1741.19 423.623,1741.52C424.263,1741.84 424.812,1742.29 425.272,1742.87C425.732,1743.44 426.08,1744.13 426.315,1744.95C426.55,1745.76 426.639,1746.69 426.583,1747.72C426.526,1748.75 426.339,1749.66 426.021,1750.44C425.704,1751.22 425.289,1751.86 424.776,1752.36C424.262,1752.86 423.668,1753.23 422.992,1753.46C422.317,1753.69 421.592,1753.77 420.818,1753.71C420.044,1753.66 419.335,1753.46 418.69,1753.13C418.046,1752.79 417.499,1752.34 417.051,1751.76C416.603,1751.18 416.264,1750.48 416.034,1749.67C415.805,1748.85 415.718,1747.93 415.774,1746.92ZM418.848,1747.14C418.781,1748.35 418.943,1749.27 419.331,1749.89C419.719,1750.52 420.266,1750.86 420.972,1750.91C421.689,1750.97 422.275,1750.71 422.729,1750.15C423.183,1749.58 423.443,1748.7 423.509,1747.49C423.575,1746.3 423.416,1745.39 423.033,1744.76C422.651,1744.14 422.101,1743.8 421.384,1743.74C420.678,1743.69 420.095,1743.94 419.636,1744.5C419.177,1745.06 418.914,1745.94 418.848,1747.14Z" style="fill:rgb(0,62,31);fill-rule:nonzero;"/>
 </g>
 <g transform="matrix(2.75547,-0.00626243,0.00544137,2.14256,758.491,-2745.33)">
 <path d="M444.183,1751.88C444.187,1752.3 444.128,1752.6 444.004,1752.8C443.88,1753 443.683,1753.2 443.411,1753.39C443.252,1753.5 443.053,1753.6 442.815,1753.7C442.576,1753.81 442.315,1753.9 442.03,1753.97C441.746,1754.05 441.447,1754.11 441.134,1754.15C440.82,1754.2 440.51,1754.22 440.202,1754.23C439.381,1754.24 438.61,1754.12 437.889,1753.87C437.167,1753.62 436.539,1753.23 436.004,1752.72C435.469,1752.2 435.043,1751.55 434.728,1750.77C434.412,1749.99 434.25,1749.09 434.24,1748.05C434.229,1746.96 434.388,1746.01 434.717,1745.2C435.046,1744.38 435.484,1743.71 436.032,1743.16C436.58,1742.62 437.21,1742.21 437.92,1741.93C438.63,1741.66 439.362,1741.52 440.115,1741.51C441.198,1741.49 442.058,1741.68 442.695,1742.08C443.332,1742.48 443.654,1743 443.66,1743.65C443.663,1744 443.592,1744.29 443.446,1744.55C443.3,1744.8 443.131,1745 442.938,1745.15C442.651,1744.96 442.293,1744.77 441.864,1744.58C441.434,1744.39 440.951,1744.3 440.415,1744.31C439.457,1744.32 438.699,1744.65 438.14,1745.29C437.582,1745.94 437.308,1746.82 437.319,1747.95C437.325,1748.56 437.407,1749.09 437.565,1749.53C437.723,1749.97 437.935,1750.34 438.2,1750.62C438.465,1750.9 438.769,1751.11 439.113,1751.24C439.456,1751.38 439.822,1751.44 440.209,1751.44C440.46,1751.43 440.683,1751.41 440.876,1751.35C441.069,1751.29 441.217,1751.23 441.319,1751.16L441.301,1749.29L439.471,1749.32C439.401,1749.17 439.333,1748.98 439.268,1748.74C439.203,1748.51 439.17,1748.25 439.167,1747.99C439.162,1747.51 439.253,1747.16 439.439,1746.95C439.626,1746.73 439.867,1746.62 440.163,1746.62L443.055,1746.58C443.397,1746.58 443.663,1746.68 443.853,1746.9C444.044,1747.12 444.141,1747.43 444.145,1747.82L444.183,1751.88Z" style="fill:rgb(0,62,31);fill-rule:nonzero;"/>
 </g>
 <g transform="matrix(2.75547,-0.00626243,0.00544137,2.14256,758.491,-2745.33)">
 <path d="M449.382,1743.57C449.848,1743.54 450.311,1743.58 450.769,1743.7C451.227,1743.82 451.629,1744.01 451.976,1744.29C452.303,1744 452.675,1743.76 453.092,1743.55C453.51,1743.35 454.02,1743.22 454.623,1743.18C455.056,1743.14 455.484,1743.18 455.906,1743.28C456.329,1743.38 456.711,1743.56 457.051,1743.82C457.391,1744.08 457.671,1744.44 457.891,1744.9C458.11,1745.35 458.239,1745.92 458.276,1746.59L458.623,1752.85C458.512,1752.9 458.335,1752.95 458.092,1753.01C457.85,1753.07 457.597,1753.11 457.336,1753.13C457.085,1753.15 456.859,1753.14 456.658,1753.12C456.456,1753.09 456.284,1753.03 456.141,1752.92C455.998,1752.81 455.883,1752.65 455.798,1752.45C455.713,1752.26 455.661,1751.99 455.642,1751.66L455.379,1746.91C455.357,1746.51 455.244,1746.23 455.041,1746.07C454.837,1745.9 454.571,1745.84 454.241,1745.86C454.081,1745.87 453.913,1745.93 453.736,1746.03C453.558,1746.13 453.427,1746.23 453.341,1746.33C453.355,1746.38 453.363,1746.43 453.366,1746.47L453.74,1753.22C453.617,1753.27 453.434,1753.32 453.192,1753.38C452.949,1753.44 452.703,1753.48 452.452,1753.49C452.202,1753.51 451.976,1753.51 451.775,1753.49C451.573,1753.46 451.401,1753.39 451.258,1753.29C451.115,1753.18 451,1753.02 450.915,1752.82C450.83,1752.62 450.778,1752.36 450.759,1752.03L450.496,1747.28C450.474,1746.88 450.353,1746.6 450.132,1746.44C449.912,1746.28 449.653,1746.2 449.357,1746.23C449.153,1746.24 448.978,1746.29 448.834,1746.38C448.69,1746.46 448.569,1746.54 448.47,1746.61L448.857,1753.59C448.745,1753.63 448.568,1753.69 448.326,1753.74C448.083,1753.8 447.831,1753.84 447.569,1753.86C447.319,1753.88 447.093,1753.88 446.892,1753.85C446.69,1753.83 446.518,1753.76 446.375,1753.65C446.231,1753.54 446.117,1753.39 446.032,1753.19C445.946,1752.99 445.895,1752.72 445.876,1752.39L445.543,1746.39C445.524,1746.04 445.573,1745.75 445.692,1745.52C445.811,1745.3 445.98,1745.09 446.197,1744.89C446.566,1744.54 447.033,1744.25 447.597,1744.01C448.161,1743.76 448.756,1743.62 449.382,1743.57Z" style="fill:rgb(0,62,31);fill-rule:nonzero;"/>
 </g>
 <g transform="matrix(2.75547,-0.00626243,0.00544137,2.14256,758.491,-2745.33)">
 <path d="M459.107,1739.75C459.217,1739.7 459.394,1739.63 459.638,1739.55C459.883,1739.47 460.135,1739.41 460.396,1739.38C460.645,1739.34 460.871,1739.33 461.073,1739.35C461.275,1739.36 461.451,1739.41 461.598,1739.51C461.746,1739.61 461.864,1739.76 461.953,1739.96C462.041,1740.15 462.102,1740.41 462.135,1740.74L462.33,1742.68C462.6,1742.51 462.86,1742.38 463.109,1742.3C463.359,1742.21 463.637,1742.14 463.943,1742.1C464.487,1742.03 465.013,1742.07 465.523,1742.23C466.033,1742.38 466.496,1742.65 466.913,1743.03C467.33,1743.41 467.678,1743.9 467.956,1744.5C468.235,1745.11 468.416,1745.82 468.5,1746.65C468.586,1747.51 468.551,1748.27 468.394,1748.94C468.237,1749.61 467.982,1750.18 467.628,1750.66C467.273,1751.13 466.821,1751.52 466.271,1751.82C465.721,1752.11 465.1,1752.31 464.409,1752.4C463.661,1752.5 463.017,1752.49 462.475,1752.35C461.933,1752.22 461.466,1752.03 461.073,1751.77C460.533,1751.43 460.231,1750.94 460.166,1750.29L459.107,1739.75ZM464.143,1749.75C464.664,1749.68 465.048,1749.42 465.295,1748.96C465.542,1748.51 465.625,1747.87 465.543,1747.05C465.459,1746.22 465.25,1745.62 464.914,1745.26C464.579,1744.89 464.162,1744.74 463.663,1744.81C463.437,1744.84 463.244,1744.89 463.085,1744.96C462.926,1745.04 462.755,1745.14 462.573,1745.27L463.006,1749.58C463.14,1749.66 463.298,1749.71 463.48,1749.75C463.661,1749.79 463.882,1749.79 464.143,1749.75Z" style="fill:rgb(0,62,31);fill-rule:nonzero;"/>
 </g>
 <g transform="matrix(2.75547,-0.00626243,0.00544137,2.14256,758.491,-2745.33)">
 <path d="M479.774,1749.38C479.656,1749.45 479.467,1749.52 479.208,1749.61C478.949,1749.7 478.69,1749.77 478.431,1749.82C478.172,1749.87 477.941,1749.89 477.738,1749.88C477.534,1749.87 477.357,1749.82 477.205,1749.73C477.053,1749.64 476.929,1749.49 476.832,1749.3C476.735,1749.1 476.663,1748.83 476.615,1748.49L476.186,1745.42L472.944,1746.04L473.577,1750.56C473.458,1750.62 473.27,1750.7 473.011,1750.79C472.752,1750.88 472.493,1750.95 472.234,1751C471.975,1751.04 471.744,1751.06 471.54,1751.06C471.337,1751.05 471.159,1751 471.008,1750.9C470.856,1750.81 470.732,1750.67 470.635,1750.47C470.538,1750.27 470.466,1750.01 470.418,1749.66L468.964,1739.29C469.085,1739.24 469.277,1739.17 469.54,1739.07C469.804,1738.97 470.06,1738.9 470.307,1738.86C470.566,1738.81 470.798,1738.79 471.001,1738.79C471.204,1738.8 471.382,1738.85 471.534,1738.94C471.685,1739.04 471.809,1739.18 471.906,1739.38C472.003,1739.58 472.076,1739.84 472.123,1740.18L472.564,1743.33L475.806,1742.71L475.162,1738.12C475.282,1738.07 475.474,1737.99 475.738,1737.9C476.001,1737.8 476.257,1737.73 476.505,1737.68C476.764,1737.63 476.995,1737.61 477.198,1737.62C477.402,1737.63 477.579,1737.68 477.731,1737.77C477.883,1737.86 478.007,1738.01 478.104,1738.2C478.201,1738.4 478.273,1738.67 478.321,1739.01L479.774,1749.38Z" style="fill:rgb(0,62,31);fill-rule:nonzero;"/>
 </g>
 <g transform="matrix(2.75547,-0.00626243,0.00544137,2.14256,758.491,-2745.33)">
 <path d="M492.079,1736.7C492.316,1736.5 492.543,1736.34 492.76,1736.22C492.978,1736.1 493.204,1736.01 493.44,1735.94C493.773,1735.85 494.055,1735.83 494.286,1735.88C494.517,1735.94 494.712,1736.05 494.872,1736.22C495.031,1736.39 495.159,1736.61 495.257,1736.87C495.355,1737.13 495.437,1737.42 495.503,1737.75C495.771,1739.05 495.741,1740.38 495.413,1741.71L497.382,1743.06C497.48,1743.68 497.402,1744.23 497.149,1744.71C496.895,1745.19 496.539,1745.49 496.082,1745.62C495.527,1745.77 494.923,1745.62 494.271,1745.15L493.786,1744.82C493.362,1745.4 492.846,1745.9 492.239,1746.34C491.631,1746.77 490.925,1747.1 490.121,1747.32C489.303,1747.55 488.556,1747.62 487.88,1747.55C487.205,1747.47 486.608,1747.27 486.088,1746.96C485.569,1746.64 485.138,1746.22 484.796,1745.69C484.453,1745.16 484.211,1744.55 484.069,1743.86C483.947,1743.26 483.914,1742.71 483.971,1742.2C484.027,1741.69 484.144,1741.22 484.321,1740.8C484.498,1740.37 484.713,1739.99 484.967,1739.66C485.221,1739.32 485.491,1739.03 485.777,1738.78C485.42,1738.47 485.138,1738.11 484.931,1737.71C484.724,1737.31 484.581,1736.91 484.502,1736.53C484.399,1736.02 484.394,1735.53 484.485,1735.05C484.576,1734.56 484.755,1734.11 485.021,1733.69C485.288,1733.28 485.643,1732.92 486.085,1732.61C486.527,1732.3 487.053,1732.06 487.663,1731.89C488.537,1731.65 489.192,1731.66 489.627,1731.92C490.062,1732.18 490.337,1732.6 490.453,1733.16C490.509,1733.43 490.518,1733.71 490.481,1734C490.444,1734.28 490.356,1734.55 490.219,1734.81C490.05,1734.77 489.86,1734.76 489.649,1734.77C489.438,1734.77 489.221,1734.81 488.999,1734.87C488.639,1734.97 488.354,1735.12 488.144,1735.31C487.935,1735.51 487.865,1735.77 487.935,1736.11C487.984,1736.35 488.125,1736.57 488.356,1736.77C488.588,1736.97 488.867,1737.19 489.193,1737.42L492.471,1739.69C492.467,1739.31 492.433,1738.88 492.369,1738.38C492.304,1737.89 492.208,1737.33 492.079,1736.7ZM487.343,1742.67C487.459,1743.23 487.718,1743.66 488.122,1743.95C488.526,1744.24 489.046,1744.29 489.684,1744.12C489.962,1744.04 490.244,1743.91 490.531,1743.74C490.818,1743.57 491.079,1743.34 491.313,1743.05L488.011,1740.67C487.714,1740.94 487.51,1741.25 487.4,1741.61C487.289,1741.96 487.27,1742.31 487.343,1742.67Z" style="fill:rgb(0,62,31);fill-rule:nonzero;"/>
 </g>
 <g transform="matrix(2.75547,-0.00626243,0.00544137,2.14256,758.491,-2745.33)">
 <path d="M506.201,1731.7C505.364,1732.01 504.805,1732.55 504.524,1733.31C504.242,1734.07 504.251,1734.99 504.55,1736.08C504.853,1737.17 505.333,1737.93 505.991,1738.34C506.649,1738.75 507.396,1738.8 508.232,1738.49C508.678,1738.32 509.036,1738.11 509.307,1737.86C509.579,1737.6 509.831,1737.33 510.065,1737.05C510.298,1737.16 510.5,1737.32 510.672,1737.52C510.843,1737.73 510.973,1738 511.064,1738.33C511.207,1738.85 511.081,1739.38 510.686,1739.92C510.291,1740.47 509.588,1740.93 508.578,1741.3C507.85,1741.58 507.133,1741.71 506.426,1741.71C505.719,1741.71 505.057,1741.55 504.442,1741.23C503.826,1740.9 503.275,1740.41 502.787,1739.75C502.3,1739.09 501.91,1738.23 501.617,1737.17C501.346,1736.18 501.239,1735.26 501.298,1734.41C501.357,1733.56 501.546,1732.79 501.865,1732.1C502.184,1731.41 502.617,1730.82 503.163,1730.32C503.709,1729.83 504.335,1729.44 505.041,1729.18C506.04,1728.81 506.866,1728.71 507.519,1728.88C508.172,1729.06 508.58,1729.44 508.744,1730.04C508.835,1730.37 508.842,1730.68 508.767,1730.97C508.692,1731.26 508.581,1731.51 508.435,1731.72C508.094,1731.61 507.742,1731.54 507.379,1731.51C507.017,1731.48 506.624,1731.54 506.201,1731.7Z" style="fill:rgb(0,62,31);fill-rule:nonzero;"/>
 </g>
 <g transform="matrix(2.75547,-0.00626243,0.00544137,2.14256,758.491,-2745.33)">
 <path d="M516.529,1731.23C516.177,1730.13 515.768,1729.35 515.304,1728.87C514.84,1728.39 514.356,1728.26 513.854,1728.48C513.352,1728.7 513.066,1729.16 512.997,1729.87C512.927,1730.58 513.068,1731.49 513.42,1732.58C513.772,1733.67 514.176,1734.47 514.631,1734.95C515.087,1735.44 515.566,1735.58 516.068,1735.36C516.57,1735.14 516.86,1734.67 516.939,1733.95C517.017,1733.23 516.88,1732.32 516.529,1731.23ZM519.269,1730.03C519.576,1730.99 519.744,1731.89 519.77,1732.73C519.796,1733.57 519.701,1734.32 519.484,1734.99C519.266,1735.66 518.935,1736.24 518.491,1736.73C518.046,1737.22 517.514,1737.6 516.894,1737.87C516.264,1738.14 515.642,1738.27 515.03,1738.23C514.417,1738.2 513.84,1738.02 513.299,1737.68C512.757,1737.34 512.263,1736.85 511.814,1736.19C511.366,1735.54 510.988,1734.73 510.68,1733.77C510.372,1732.82 510.203,1731.92 510.174,1731.09C510.144,1730.26 510.238,1729.51 510.455,1728.85C510.672,1728.18 511.003,1727.6 511.448,1727.11C511.893,1726.61 512.43,1726.23 513.061,1725.96C513.68,1725.69 514.296,1725.57 514.909,1725.6C515.522,1725.63 516.099,1725.81 516.64,1726.15C517.181,1726.49 517.678,1726.98 518.129,1727.63C518.581,1728.27 518.961,1729.08 519.269,1730.03Z" style="fill:rgb(0,62,31);fill-rule:nonzero;"/>
 </g>
 <g transform="matrix(2.75547,-0.00626243,0.00544137,2.14256,758.491,-2745.33)">
 <path d="M521.256,1733.83C521.073,1733.31 521.057,1732.82 521.209,1732.34C521.36,1731.87 521.673,1731.52 522.147,1731.29C522.621,1731.06 523.057,1731.05 523.453,1731.26C523.849,1731.47 524.139,1731.83 524.323,1732.35C524.506,1732.86 524.522,1733.36 524.37,1733.84C524.219,1734.31 523.906,1734.66 523.432,1734.89C522.958,1735.12 522.522,1735.13 522.126,1734.92C521.73,1734.71 521.44,1734.34 521.256,1733.83Z" style="fill:rgb(0,62,31);fill-rule:nonzero;"/>
 </g>
 <g transform="matrix(2.75547,-0.00626243,0.00544137,2.14256,758.491,-2745.33)">
 <path d="M530.408,1726.03L532.055,1729.99C531.957,1730.09 531.792,1730.23 531.56,1730.4C531.329,1730.58 531.095,1730.73 530.859,1730.86C530.623,1731 530.406,1731.09 530.209,1731.15C530.012,1731.21 529.829,1731.22 529.661,1731.18C529.493,1731.14 529.339,1731.05 529.198,1730.89C529.057,1730.73 528.922,1730.5 528.793,1730.19L524.859,1720.73C524.962,1720.64 525.128,1720.51 525.358,1720.33C525.587,1720.14 525.814,1719.99 526.04,1719.86C526.276,1719.73 526.493,1719.63 526.69,1719.58C526.887,1719.52 527.069,1719.51 527.237,1719.54C527.405,1719.58 527.56,1719.68 527.701,1719.84C527.842,1719.99 527.977,1720.23 528.106,1720.54L529.291,1723.39L530.714,1717.3C531.412,1716.91 531.976,1716.78 532.406,1716.91C532.835,1717.05 533.137,1717.32 533.311,1717.74C533.44,1718.05 533.495,1718.38 533.476,1718.73C533.456,1719.08 533.37,1719.51 533.216,1720.03L532.222,1723.35C532.618,1723.54 533.031,1723.74 533.462,1723.94C533.894,1724.13 534.316,1724.33 534.73,1724.52C535.144,1724.7 535.541,1724.88 535.922,1725.05C536.302,1725.22 536.632,1725.37 536.911,1725.49C537.021,1725.75 537.076,1726.01 537.079,1726.26C537.081,1726.51 537.043,1726.74 536.964,1726.96C536.885,1727.18 536.773,1727.38 536.628,1727.55C536.483,1727.72 536.313,1727.86 536.118,1727.97C535.697,1728.21 535.302,1728.28 534.933,1728.18C534.565,1728.09 534.187,1727.94 533.802,1727.75L530.408,1726.03Z" style="fill:rgb(0,62,31);fill-rule:nonzero;"/>
 </g>
 <g transform="matrix(2.75547,-0.00626243,0.00544137,2.14256,758.491,-2745.33)">
 <path d="M545.925,1719.38C546.096,1719.74 546.169,1720.05 546.142,1720.29C546.115,1720.54 546.02,1720.82 545.858,1721.13C545.762,1721.32 545.63,1721.52 545.462,1721.74C545.294,1721.96 545.1,1722.18 544.881,1722.41C544.662,1722.63 544.424,1722.85 544.166,1723.06C543.908,1723.28 543.644,1723.47 543.375,1723.64C542.656,1724.1 541.929,1724.42 541.192,1724.6C540.456,1724.78 539.746,1724.79 539.064,1724.63C538.382,1724.47 537.743,1724.13 537.148,1723.62C536.553,1723.11 536.04,1722.4 535.609,1721.5C535.156,1720.54 534.908,1719.62 534.866,1718.72C534.824,1717.82 534.933,1716.98 535.193,1716.2C535.453,1715.42 535.84,1714.71 536.354,1714.08C536.867,1713.44 537.453,1712.91 538.112,1712.49C539.06,1711.88 539.895,1711.57 540.617,1711.57C541.34,1711.57 541.836,1711.85 542.107,1712.42C542.25,1712.72 542.31,1713.03 542.285,1713.33C542.26,1713.63 542.193,1713.91 542.084,1714.14C541.752,1714.13 541.359,1714.16 540.904,1714.23C540.45,1714.3 539.988,1714.49 539.519,1714.79C538.681,1715.33 538.147,1716.04 537.918,1716.92C537.689,1717.79 537.809,1718.72 538.279,1719.71C538.533,1720.24 538.82,1720.66 539.139,1720.96C539.459,1721.27 539.793,1721.47 540.141,1721.57C540.49,1721.67 540.842,1721.69 541.2,1721.62C541.557,1721.55 541.906,1721.4 542.245,1721.18C542.465,1721.04 542.648,1720.89 542.796,1720.74C542.943,1720.58 543.048,1720.45 543.11,1720.33L542.332,1718.69L540.73,1719.72C540.609,1719.63 540.472,1719.5 540.318,1719.33C540.163,1719.16 540.031,1718.95 539.92,1718.72C539.722,1718.3 539.66,1717.95 539.737,1717.66C539.813,1717.36 539.981,1717.13 540.24,1716.97L542.771,1715.34C543.07,1715.15 543.348,1715.09 543.603,1715.18C543.859,1715.26 544.07,1715.48 544.236,1715.83L545.925,1719.38Z" style="fill:rgb(0,62,31);fill-rule:nonzero;"/>
 </g>
 </g>
 </g>
 </g>
 <g transform="matrix(1,0,0,1,59.4981,-16.2592)">
 <path d="M1723.45,718.658C1715.95,731.064 1710.41,742.529 1710.41,747.883C1710.41,751.898 1715.99,757.475 1719.56,758.59C1720.67,758.813 1721.34,758.813 1722.24,758.813C1732.16,758.013 1753.21,739.079 1771.49,720.695C1767.47,727.495 1765.06,733.657 1764.17,738.291C1763.5,740.968 1763.5,743.198 1763.73,744.983C1764.84,752.121 1772.87,758.813 1780.01,758.813C1801.57,758.813 1832.48,734.286 1854.15,714.913C1852.21,718.691 1850.19,722.468 1848.5,726.245C1841.36,740.744 1841.36,748.106 1841.8,749.89C1843.59,753.46 1848.05,758.144 1849.61,758.813C1851.84,760.152 1854.3,761.044 1856.97,759.929C1846.93,758.813 1859.2,741.637 1864.56,731.599C1879.73,757.698 1909.84,785.359 1938.62,785.359C1949.32,785.359 1959.81,781.567 1969.18,772.644C1970.29,771.529 1968.51,771.305 1967.84,771.975C1960.48,777.551 1952.67,780.005 1944.86,780.005C1915.64,780.005 1886.19,745.875 1876.6,721.114C1901.36,723.345 1946.87,694.568 1946.87,678.061C1946.87,673.377 1941.07,664.008 1936.16,664.008C1925.23,664.008 1898.46,684.753 1880.84,703.491C1892.66,684.53 1909.39,659.1 1922.78,642.146C1922.78,642.146 1933.71,628.093 1936.16,625.193C1949.32,610.024 1957.8,601.547 1963.82,604.447C1967.84,606.901 1959.36,593.74 1946.42,593.74C1944.64,593.74 1941.74,594.855 1937.95,597.755C1930.81,603.555 1921.22,614.485 1909.84,629.654C1895.56,648.616 1879.73,671.369 1864.33,697.245C1860.09,698.138 1855.86,699.922 1854.52,703.491C1853.84,705.351 1854.06,707.723 1854.6,710.316C1833.14,727.268 1805.35,747.412 1788.71,749.221C1786.7,749.444 1782.24,748.998 1782.24,745.429C1782.24,729.814 1825.96,679.4 1849.83,678.953C1851.62,680.515 1842.47,698.138 1838.9,701.707C1838.46,702.376 1839.57,702.822 1840.02,702.376C1847.38,696.799 1858.31,688.546 1858.31,680.069C1858.31,676.723 1850.73,669.138 1845.6,669.138C1829.76,669.138 1807.23,680.738 1788.93,698.807C1787.56,700.145 1786.23,701.493 1784.97,702.846C1769.8,717.384 1741.57,743.509 1729.15,746.767C1731.83,737.621 1762.39,686.761 1771.54,687.653C1773.32,687.876 1774.43,688.992 1774.43,688.099C1774.43,682.523 1765.51,673.6 1760.38,673.6C1759.49,673.6 1758.15,673.823 1757.04,674.938C1750.69,679.994 1740.78,692.407 1731.72,705.776C1715.44,721.018 1687.36,747.272 1679.18,746.321C1684.54,732.045 1701.27,703.714 1720.67,674.269C1729.6,661.108 1736.96,649.954 1745.21,639.693C1782.47,634.116 1823.29,633.893 1867.46,637.685C1870.13,637.908 1869.24,637.462 1867.46,637.016C1835.56,630.324 1788.49,628.539 1752.57,630.324C1762.39,617.608 1775.55,599.763 1782.69,603.109C1786.93,605.563 1778,592.624 1765.51,593.294C1763.5,593.294 1760.6,595.078 1757.26,597.755C1751.68,602.216 1745.43,609.355 1728.04,632.108C1703.05,635.008 1678.51,641.254 1679.41,651.292C1680.08,658.431 1687.66,662.669 1691.23,662.669C1685.43,659.323 1698.59,648.616 1719.78,644.377C1711.53,655.308 1705.06,665.123 1699.04,674.269C1671.6,716.653 1661.56,738.514 1661.56,745.206C1661.56,747.66 1662.01,748.106 1662.23,748.552C1663.57,751.898 1668.48,756.583 1670.26,757.475C1672.27,758.59 1674.5,759.483 1677.4,758.367C1686.55,755.013 1707.57,734.99 1723.45,718.658ZM2022.42,703.163C1999.29,722.001 1962.73,748.998 1947.54,748.998C1942.63,748.998 1940.62,747.437 1940.85,744.76C1941.52,738.96 1945.75,731.822 1949.77,727.137C1974.75,726.468 2017.58,694.345 2017.58,680.515C2017.58,674.269 2007.32,669.138 2003.98,669.138C1994.38,669.138 1974.53,676.053 1956.02,691.445C1941.96,703.268 1930.59,717.322 1925.23,730.037C1923.45,734.945 1922.11,739.406 1922.11,744.76C1922.11,750.783 1931.03,758.813 1937.95,758.813C1962.05,758.813 1995.88,730.686 2016.68,711.766C2010.76,720.9 2005.18,730.394 2001.52,738.737C1998.85,743.868 1997.73,748.106 1998.18,750.114C1999.74,756.36 2005.09,763.275 2011.56,761.713C2006.65,759.483 2020.04,739.852 2031.41,727.583C2046.58,710.853 2057.07,701.93 2077.59,689.884C2071.79,696.576 2064.65,709.514 2064.65,715.76C2064.65,718.437 2071.34,726.245 2075.36,726.245C2083.43,726.245 2094.61,719.385 2104.02,712.082C2099.37,718.12 2095.66,724.219 2093.2,730.037C2091.42,734.945 2090.08,739.406 2090.08,744.76C2090.08,750.783 2099.01,758.813 2105.92,758.813C2129,758.813 2160.98,733.037 2181.92,714.237C2173.07,728.274 2166.15,741.898 2166.15,747.883C2166.15,751.898 2171.73,757.475 2175.3,758.59C2176.41,758.813 2177.08,758.813 2177.97,758.813C2191.8,757.698 2227.27,721.337 2246.68,700.368C2247.35,699.699 2246.23,697.915 2244.67,699.03C2231.06,712.191 2198.5,743.198 2184.89,746.767C2187.57,737.621 2218.13,686.761 2227.27,687.653C2229.06,687.876 2230.17,688.992 2230.17,688.099C2230.17,682.523 2221.25,673.6 2216.12,673.6C2215.23,673.6 2213.89,673.823 2212.77,674.938C2206.51,679.929 2196.77,692.09 2187.81,705.261C2164.62,723.938 2130.15,748.998 2115.51,748.998C2110.61,748.998 2108.6,747.437 2108.82,744.76C2109.49,738.96 2113.73,731.822 2117.74,727.137C2142.73,726.468 2185.56,694.345 2185.56,680.515C2185.56,674.269 2175.3,669.138 2171.95,669.138C2162.36,669.138 2142.5,676.053 2123.99,691.445C2120.26,694.586 2116.71,697.883 2113.42,701.272C2101.39,710.99 2088.92,718.348 2079.82,719.106C2087.18,701.707 2105.7,685.422 2110.61,680.292C2112.17,678.507 2103.02,668.915 2100.57,669.138C2095.88,669.584 2089.19,673.377 2080.49,679.623C2061.31,693.453 2039,712.191 2027.18,727.583C2031.86,719.33 2039.67,708.845 2045.69,700.815C2052.38,691.892 2060.19,683.192 2063.54,683.415C2065.32,683.638 2065.99,684.753 2065.99,683.861C2065.99,678.284 2057.51,669.584 2052.16,669.584C2051.27,669.584 2050.38,669.807 2049.04,670.7C2043.46,675.161 2033.87,686.538 2026.06,697.915C2024.86,699.62 2023.65,701.373 2022.42,703.163ZM2010.44,675.83C2009.78,680.069 2000.18,691.222 1988.33,701.595C1976.48,711.968 1962.37,721.56 1952.67,722.676C1960.03,710.853 1985.68,683.861 2010.44,675.83ZM2178.42,675.83C2177.75,680.069 2168.16,691.222 2156.31,701.595C2144.46,711.968 2130.35,721.56 2120.64,722.676C2128.01,710.853 2153.66,683.861 2178.42,675.83ZM1927.91,673.6C1921.22,686.984 1895.56,715.76 1875.93,718.437C1875.49,717.768 1875.04,716.207 1874.59,713.976C1876.83,710.853 1912.52,677.392 1927.91,673.6ZM1781.13,639.47C1775.33,641.254 1766.85,655.754 1767.07,662.223C1767.3,666.238 1771.98,670.923 1775.1,666.907C1777.78,663.115 1788.04,653.969 1791.83,652.408C1794.29,651.292 1796.07,652.185 1796.52,652.185C1797.41,652.185 1796.07,648.839 1794.07,646.608C1791.16,643.262 1786.26,638.8 1781.13,639.47ZM2236.86,639.47C2231.06,641.254 2222.59,655.754 2222.81,662.223C2223.03,666.238 2227.72,670.923 2230.84,666.907C2233.52,663.115 2243.78,653.969 2247.57,652.408C2250.03,651.292 2251.81,652.185 2252.26,652.185C2253.15,652.185 2251.81,648.839 2249.8,646.608C2246.9,643.262 2241.99,638.8 2236.86,639.47Z" style="fill:rgb(0,62,31);fill-rule:nonzero;"/>
 </g>
 <g transform="matrix(0.637611,0,0,0.637611,629.623,245.198)">
 <g transform="matrix(0.899534,0.340776,-0.354267,0.935144,787.086,-1357.81)">
 <path d="M2075.13,1248L2079.95,1249.51C2081.68,1246.87 2083.23,1244.01 2084.58,1241.02C2086.05,1237.72 2087.5,1234.35 2088.76,1230.79C2096.62,1228.29 2102.99,1221.83 2107.4,1214.99C2112.73,1206.7 2115.3,1197.82 2117.58,1189.61C2119.77,1181.34 2121.34,1173.52 2122.86,1166.37C2124.42,1159.24 2125.75,1152.75 2127.51,1147.21C2129.22,1141.64 2131.41,1137.1 2133.72,1133.83C2138.52,1127.19 2143.31,1126.63 2143.13,1126.44C2143.13,1126.44 2142.09,1126.59 2140.18,1127.28C2138.29,1127.94 2135.48,1129.52 2132.72,1132.73C2127.08,1139.11 2122.44,1151.2 2118.89,1165.39C2117,1172.47 2115.06,1180.13 2112.54,1187.95C2110,1195.68 2106.94,1203.92 2102.43,1210.59C2099.48,1214.99 2095.62,1218.78 2091.42,1221.09C2091.84,1218.93 2092.15,1216.68 2092.33,1214.32C2092.53,1209.14 2091.55,1203.57 2088.57,1199.11C2085.77,1194.61 2080.42,1192.05 2075.74,1192.16C2070.7,1192.21 2065.27,1194.78 2061.77,1200.19C2058.04,1205.52 2058.26,1213.73 2060.57,1218.3C2063.2,1223.88 2067.02,1226.87 2070.78,1228.78C2074.27,1230.49 2078,1231.49 2081.93,1231.49C2081.17,1233.79 2080.35,1236.02 2079.5,1238.14C2078.14,1241.61 2076.54,1244.82 2074.74,1247.67Z" style="fill:rgb(244,226,180);stroke:rgb(0,62,31);stroke-width:7.14px;"/>
 </g>
 </g>
 <g transform="matrix(0.75762,0,0,0.75762,439.426,159.635)">
 <g>
 <g transform="matrix(0.154351,0.0022189,-0.00266073,0.185086,1763.85,232.081)">
 <path d="M2013,1266L1751.43,1266L1816.82,1201L1947.61,1201L2013,1266Z" style="fill:rgb(0,62,31);"/>
 </g>
 <g transform="matrix(0.185086,0.00266073,-0.00266073,0.185086,1706.48,230.701)">
 <path d="M1967,935.675C1967,911.57 1947.43,892 1923.33,892L1835.98,892C1811.87,892 1792.3,911.57 1792.3,935.675L1792.3,1157.33C1792.3,1181.43 1811.87,1201 1835.98,1201L1923.33,1201C1947.43,1201 1967,1181.43 1967,1157.33L1967,935.675Z" style="fill:rgb(0,62,31);"/>
 </g>
 </g>
 </g>
 </g>
</svg>