<?xml version="1.0" encoding="UTF-8" standalone="no"?><!DOCTYPE svg PUBLIC "-//W3C//DTD SVG 1.1//EN" "http://www.w3.org/Graphics/SVG/1.1/DTD/svg11.dtd"><svg width="100%" height="100%" viewBox="0 0 9355 3109" version="1.1" xmlns="http://www.w3.org/2000/svg" xmlns:xlink="http://www.w3.org/1999/xlink" xml:space="preserve" xmlns:serif="http://www.serif.com/" style="fill-rule:evenodd;clip-rule:evenodd;stroke-linejoin:round;stroke-miterlimit:2;"><g><g><path d="M8373.57,1666.2l-342.381,-4.922l87.062,-100.792l171.19,2.461l84.129,103.253Z" style="fill:#ff461a;"/><path d="M8347,1142.54c0.544,-37.834 -29.731,-68.993 -67.566,-69.537l-137.102,-1.97c-37.835,-0.544 -68.993,29.731 -69.537,67.565l-5.001,347.897c-0.544,37.834 29.731,68.993 67.566,69.537l137.102,1.971c37.834,0.543 68.993,-29.732 69.537,-67.566l5.001,-347.897Z" style="fill:#ff461a;"/><path d="M8270.89,993.078l-117.718,-1.692l-1.079,75.073l117.718,1.692l1.079,-75.073Z" style="fill:#ff461a;"/><path d="M7674.22,1652.58l-342.381,-4.922l87.544,-134.291l171.19,2.461l83.647,136.752Z" style="fill:#ff461a;"/><path d="M7650.45,934.617c0.544,-37.835 -29.731,-68.993 -67.566,-69.537l-137.102,-1.971c-37.834,-0.544 -68.993,29.732 -69.537,67.566l-7.29,507.143c-0.544,37.834 29.731,68.993 67.566,69.536l137.102,1.971c37.834,0.544 68.993,-29.731 69.537,-67.565l7.29,-507.143Z" style="fill:#ff461a;"/><path d="M7574.71,758.963l-117.718,-1.692l-1.434,99.723l117.718,1.692l1.434,-99.723Z" style="fill:#ff461a;"/><path d="M7331.84,1647.65l-342.381,-4.922l87.062,-100.792l171.19,2.461l84.129,103.253Z" style="fill:#ff461a;"/><path d="M7305.27,1123.99c0.544,-37.835 -29.731,-68.993 -67.566,-69.537l-137.102,-1.971c-37.835,-0.544 -68.993,29.731 -69.537,67.566l-5.001,347.896c-0.544,37.835 29.731,68.993 67.566,69.537l137.102,1.971c37.834,0.544 68.993,-29.731 69.537,-67.566l5.001,-347.896Z" style="fill:#ff461a;"/><path d="M7229.16,974.528l-117.718,-1.693l-1.079,75.074l117.718,1.692l1.079,-75.073Z" style="fill:#ff461a;"/><path d="M8016.6,1657.5l-342.381,-4.922l87.551,-134.793l171.191,2.461l83.639,137.254Z" style="fill:#ff461a;"/><path d="M7992.87,936.625c0.544,-37.835 -29.731,-68.993 -67.566,-69.537l-137.102,-1.971c-37.834,-0.544 -68.993,29.731 -69.537,67.566l-7.324,509.531c-0.544,37.835 29.731,68.993 67.565,69.537l137.103,1.971c37.834,0.544 68.992,-29.732 69.536,-67.566l7.325,-509.531Z" style="fill:#ff461a;"/><path d="M7917.14,760.578l-117.718,-1.692l-1.439,100.092l117.719,1.693l1.438,-100.093Z" style="fill:#ff461a;"/><g><path d="M5983.86,1638.75l974.627,-103.393l3.914,72.948l-978.541,30.445Z" style="fill:#ff461a;fill-rule:nonzero;"/><g><path d="M6173.34,1506.02l772.033,-103.392l3.1,72.947l-775.133,30.445Z" style="fill:#ff461a;fill-rule:nonzero;"/></g><g><path d="M6312.42,1376.27l633.514,-93.238l2.544,65.783l-636.058,27.455Z" style="fill:#ff461a;fill-rule:nonzero;"/></g></g><g><path d="M9352.61,1638.75l-974.627,-103.393l-3.914,72.948l978.541,30.445Z" style="fill:#ff461a;fill-rule:nonzero;"/><g><path d="M9163.13,1506.02l-772.033,-103.392l-3.1,72.947l775.133,30.445Z" style="fill:#ff461a;fill-rule:nonzero;"/></g><g><path d="M9024.05,1376.27l-633.513,-93.238l-2.544,65.783l636.057,27.455Z" style="fill:#ff461a;fill-rule:nonzero;"/></g></g></g><g><path d="M6521.45,1264.74l417.201,-106.003l1.675,74.789l-418.876,31.214Z" style="fill:#ff461a;fill-rule:nonzero;"/></g><g><path d="M8812.69,1264.74l-417.2,-106.003l-1.676,74.789l418.876,31.214Z" style="fill:#ff461a;fill-rule:nonzero;"/></g></g><g><path d="M3501.3,2585.42c-8.153,12.381 -16.306,23.856 -25.063,35.331c-28.084,37.143 -59.187,67.944 -92.706,92.102c-33.821,24.157 -69.755,36.236 -108.106,36.236c-25.063,0 -48.315,-5.133 -69.453,-16.004c-21.138,-10.569 -39.257,-23.856 -54.355,-40.767c-15.099,-16.306 -26.876,-34.726 -35.331,-54.053c-8.757,-19.628 -12.985,-38.652 -12.985,-56.77c0,-66.434 0.604,-133.472 1.51,-201.416c1.208,-67.943 2.718,-136.189 4.53,-204.737l-49.826,0c-9.965,0 -17.816,-7.247 -23.252,-21.742c-5.435,-14.796 -7.851,-31.103 -6.945,-49.221c1.208,-18.119 5.134,-34.425 12.079,-48.92c7.247,-14.796 18.722,-22.044 34.727,-22.044l34.727,0c1.207,-28.083 1.509,-55.864 1.509,-83.042l0,-81.532c0,-8.154 10.569,-15.401 31.708,-22.044c21.138,-6.342 44.993,-9.663 70.963,-9.663c23.252,-0 44.692,3.925 64.32,12.078c19.628,8.154 29.291,22.044 29.291,42.277c0,5.133 0,20.534 -0.604,45.899c-0.604,25.668 -1.811,57.677 -3.925,96.027l70.963,0c8.153,0 14.193,6.946 18.118,20.233c4.228,13.89 6.342,28.989 6.946,45.295c0.604,16.911 -1.208,32.009 -5.436,46.202c-3.925,14.193 -10.569,21.138 -19.628,21.138l-39.256,0c-12.079,0 -23.554,0.604 -34.727,1.51l-3.02,105.69c-0.906,35.331 -1.812,67.642 -3.019,97.235c-0.906,29.895 -1.51,55.261 -2.114,76.399c-0.604,21.138 -0.906,35.633 -0.906,43.786c-0,29.291 3.322,47.712 9.965,55.865c6.643,8.153 13.891,12.079 21.742,12.079c16.306,-0 32.915,-9.361 50.731,-27.782c17.515,-18.722 35.029,-42.578 52.845,-71.869c17.515,-29.291 34.727,-60.998 51.336,-95.121c5.737,-12.079 11.475,-24.158 16.91,-35.935l0.302,-14.495c1.208,-36.84 1.812,-76.096 2.416,-117.769c0.604,-41.974 0.604,-83.042 0.604,-123.204c-0,-17.213 10.569,-29.594 31.707,-37.143c21.138,-7.549 44.994,-11.173 70.963,-11.173c25.366,0 48.316,3.624 69.454,11.173c21.138,7.549 31.707,19.93 31.707,37.143c-0,3.925 -0.302,16.004 -1.51,36.236c-0.906,20.233 -2.416,44.088 -4.53,71.87c-1.811,27.479 -3.925,57.676 -6.039,90.591c-1.812,32.613 -3.926,64.32 -6.039,95.122c-1.812,30.499 -3.322,58.28 -4.53,83.042c-0.906,24.46 -1.51,42.88 -1.51,54.959c0,23.252 2.114,38.048 6.04,44.39c4.227,6.643 10.267,9.965 18.118,9.965c16.306,-0 31.707,-9.361 46.806,-27.782c15.098,-18.722 29.895,-42.578 43.785,-71.869c8.456,-17.212 16.307,-35.331 24.158,-54.355l0,-3.02c0,-45.295 6.04,-91.195 18.119,-137.397c12.078,-46.202 30.801,-87.874 55.864,-124.412c25.366,-36.841 56.469,-67.038 93.612,-90.592c37.444,-23.856 81.23,-35.633 131.358,-35.633c35.33,0 66.433,5.738 93.007,17.213c26.574,11.777 48.919,28.083 67.038,49.221c18.118,21.138 32.009,46.202 41.672,75.493c9.663,29.291 14.193,60.998 14.193,95.121c-0,28.084 -11.475,48.014 -34.727,59.489c-22.95,11.777 -47.108,17.514 -72.473,17.514c-22.044,0 -41.069,-3.322 -57.375,-9.965c-16.005,-6.341 -22.648,-14.193 -19.628,-23.252c3.019,-8.153 5.435,-19.93 6.945,-35.33c1.51,-15.703 1.51,-31.708 0,-47.712c-1.51,-16.005 -4.53,-29.895 -9.059,-41.37c-4.53,-11.777 -11.777,-17.515 -22.044,-17.515c-12.079,0 -23.554,8.456 -34.727,25.668c-10.871,17.212 -20.836,38.35 -29.291,63.414c-8.757,25.064 -15.401,52.241 -20.534,80.627c-4.832,28.989 -7.55,54.355 -7.55,76.399c0,18.118 1.208,37.142 3.02,57.374c2.114,20.232 7.549,38.955 16.609,56.771c9.059,17.514 22.346,31.707 39.256,42.88c17.212,11.173 40.766,16.609 70.963,16.609c34.425,-0 65.83,-9.362 94.518,-28.084c28.687,-18.42 54.657,-42.276 77.607,-71.567c23.251,-29.292 43.483,-60.999 61.3,-95.725c8.757,-17.515 17.212,-34.727 24.762,-51.638c-0,-16.004 -0.302,-35.028 -0.604,-57.072c-0.604,-32.915 -0.906,-69.454 -1.51,-109.616c-0.604,-40.162 -0.906,-82.137 -1.51,-125.319c-0.604,-43.182 -1.208,-84.25 -1.51,-123.204c-0.604,-38.653 -1.208,-73.681 -1.51,-105.69c-0.604,-31.406 -0.906,-55.563 -0.906,-71.568c0,-11.173 4.228,-19.628 12.079,-25.667c8.153,-6.04 18.118,-10.569 29.593,-13.589c11.475,-3.02 23.856,-4.832 36.841,-5.436c13.287,-0.302 24.762,-0.604 34.727,-0.604c10.267,0 21.138,0.604 32.613,1.51c11.475,0.906 22.346,3.02 32.311,6.04c10.267,3.019 18.42,6.945 25.063,12.079c6.644,5.133 9.664,12.078 9.664,21.138c-0,3.019 -0.302,15.098 -0.604,36.236c-0.604,21.138 -0.906,47.41 -1.51,79.419c-0.604,31.707 -1.208,66.434 -2.416,104.784c-0.906,38.351 -1.812,76.097 -3.02,113.24c-0.906,37.142 -1.812,71.869 -3.019,104.18c-0.906,32.311 -1.812,57.979 -3.02,77.003c7.247,-22.044 16.004,-46.202 26.573,-71.869c10.569,-25.366 23.856,-49.826 39.861,-72.474c16.306,-22.648 36.236,-41.37 59.79,-56.468c23.554,-15.099 51.637,-22.648 83.646,-22.648c17.213,-0 35.633,2.415 55.261,7.549c19.629,5.133 38.049,14.193 54.959,27.177c17.213,12.985 31.405,31.104 42.276,53.751c11.173,22.648 16.609,51.034 16.609,85.157c-0,36.236 -6.342,68.849 -19.628,98.141c-12.985,29.291 -30.198,54.958 -51.336,77.002c-21.138,22.044 -45.295,40.465 -72.473,54.959c-27.177,14.797 -55.261,25.668 -84.552,32.613c11.173,6.946 22.95,16.609 35.633,28.688c12.682,12.079 25.667,23.855 39.256,35.632c13.589,11.475 27.781,21.44 42.88,30.198c15.099,8.455 30.197,12.682 45.296,12.682c21.138,0 41.37,-9.059 60.394,-27.177c19.326,-18.118 37.143,-41.37 53.751,-69.454c7.55,-12.984 14.797,-26.573 21.742,-40.766l0,-4.529c0,-65.528 8.757,-123.205 26.574,-173.634c17.514,-50.43 40.766,-92.706 69.453,-127.433c28.688,-34.726 60.697,-61.3 95.726,-79.418c35.33,-18.119 70.963,-27.178 107.2,-27.178c40.464,0 73.983,10.569 101.16,31.707l0,-108.106c0,-36.538 0.302,-70.057 0.906,-100.254c0.302,-30.198 0.906,-55.261 1.51,-74.588c0.302,-19.628 0.604,-30.197 0.604,-31.103c-0,-17.212 10.569,-29.291 31.707,-36.84c21.138,-7.55 44.994,-11.475 70.963,-11.475c28.386,-0 54.053,3.925 77.909,12.079c23.554,8.153 35.331,20.232 35.331,36.236c0,3.926 -1.208,19.025 -3.624,45.296c-2.717,26.272 -5.435,59.489 -9.059,99.651c-3.623,40.162 -7.247,85.76 -11.475,136.491c-3.925,51.034 -7.549,102.973 -11.173,156.422c-3.623,53.449 -6.643,106.596 -9.059,159.441c-2.416,52.845 -3.926,101.161 -3.926,145.551c0,27.177 5.134,44.39 15.099,51.939c10.267,7.549 18.722,11.475 25.668,11.475c14.192,-0 28.687,-8.757 43.182,-26.574c14.494,-17.514 29.291,-39.86 44.39,-67.038c12.078,-21.44 23.553,-44.993 35.028,-70.057c3.322,-46.504 11.475,-88.78 24.762,-127.13c17.514,-50.732 41.37,-93.31 70.964,-128.338c29.593,-34.727 64.622,-60.697 104.784,-78.211c40.464,-17.817 83.042,-26.574 128.338,-26.574c37.445,0 67.944,5.436 91.498,16.005c23.553,10.569 42.276,22.95 55.864,37.746c13.589,14.495 22.95,29.593 28.688,45.296c5.435,15.401 8.153,28.687 8.153,39.86c-0,5.134 -3.02,9.965 -9.059,15.099c-6.04,5.133 -13.589,9.663 -22.648,13.589c8.153,-0 19.326,0.604 33.217,2.415c14.192,1.51 28.083,3.926 41.672,7.55c13.589,3.321 25.366,9.059 35.331,16.608c10.267,7.55 15.098,17.213 15.098,29.292c0,6.945 -1.812,20.232 -6.039,39.86c-3.926,19.93 -8.153,41.37 -12.683,65.226c-4.53,23.554 -8.757,47.409 -12.985,71.567c-3.925,24.158 -6.039,44.39 -6.039,60.395c-0,27.177 2.718,44.39 7.549,51.939c5.134,7.549 11.777,11.475 19.628,11.475c15.099,-0 29.895,-8.757 44.692,-26.574c14.495,-17.514 28.989,-39.86 42.88,-67.038c14.193,-27.177 27.178,-57.374 39.257,-90.591c3.019,-7.851 5.737,-15.703 8.455,-23.252c0.906,-51.637 2.114,-103.275 3.623,-154.912l-49.825,0c-9.965,0 -17.816,-7.247 -23.252,-21.742c-5.737,-14.796 -7.851,-31.103 -6.945,-49.221c1.208,-18.119 5.133,-34.425 12.079,-48.92c7.247,-14.796 18.722,-22.044 34.726,-22.044l34.727,0c1.208,-28.083 1.51,-55.864 1.51,-83.042l0,-81.532c0,-8.154 10.569,-15.401 31.707,-22.044c21.138,-6.342 44.994,-9.663 70.964,-9.663c23.251,-0 44.692,3.925 64.32,12.078c19.628,8.154 29.291,22.044 29.291,42.277c-0,5.133 -0,20.534 -0.604,45.899c-0.604,25.668 -1.812,57.677 -3.926,96.027l70.964,0c8.153,0 14.193,6.946 18.118,20.233c4.228,13.89 6.342,28.989 6.946,45.295c0.302,16.911 -1.208,32.009 -5.436,46.202c-3.926,14.193 -10.569,21.138 -19.628,21.138l-39.257,0c-12.078,0 -23.553,0.604 -34.726,1.51l-3.02,105.69c-0.906,35.331 -1.812,67.642 -3.02,97.235c-0.906,29.895 -1.51,55.261 -2.114,76.399c-0.604,21.138 -0.905,35.633 -0.905,43.786c-0,29.291 3.321,47.712 9.965,55.865c6.643,8.153 13.89,12.079 21.742,12.079c16.306,-0 32.915,-9.361 50.731,-27.782c17.514,-18.722 35.029,-42.578 52.845,-71.869c17.514,-29.291 34.727,-60.998 51.335,-95.121c1.51,-3.322 3.322,-6.946 4.832,-10.267c3.02,-26.574 8.455,-54.355 16.306,-82.439c12.683,-45.899 31.405,-87.873 56.469,-126.224c25.366,-38.35 57.073,-69.755 95.121,-94.517c38.351,-24.46 83.647,-36.841 135.888,-36.841c66.434,0 116.259,19.628 149.476,58.885c33.217,39.256 49.825,89.082 49.825,149.476c0,46.202 -9.059,88.176 -27.177,125.318c-18.118,37.143 -40.162,69.152 -66.434,95.726c-25.97,26.875 -54.657,47.711 -85.156,62.81c-30.801,15.098 -59.187,23.554 -85.458,25.667c10.267,14.193 23.252,25.064 39.256,33.217c16.307,8.153 37.445,12.079 63.414,12.079c34.425,0 66.132,-9.663 95.121,-28.687c29.292,-19.024 55.865,-43.182 80.023,-72.474c24.158,-29.291 46.202,-61.3 65.83,-96.631c5.134,-9.361 9.965,-18.42 14.797,-27.479c0.302,-12.079 0.604,-25.064 0.906,-38.049c1.207,-36.84 1.811,-76.096 2.415,-117.769c0.604,-41.974 0.604,-83.042 0.604,-123.204c0,-17.213 10.569,-29.594 31.707,-37.143c21.138,-7.549 44.994,-11.173 70.964,-11.173c25.365,0 48.315,3.624 69.453,11.173c21.138,7.549 31.707,19.93 31.707,37.143c0,3.925 -0.302,16.004 -1.509,36.236c-0.906,20.233 -2.416,44.088 -4.53,71.87c-1.812,27.479 -3.926,57.676 -6.039,90.591c-1.812,32.613 -3.926,64.32 -6.04,95.122c-1.812,30.499 -3.322,58.28 -4.53,83.042c-0.905,24.46 -1.509,42.88 -1.509,54.959c-0,23.252 2.113,38.048 6.039,44.39c4.228,6.643 10.267,9.965 18.118,9.965c16.307,-0 31.707,-9.361 46.806,-27.782c15.099,-18.722 29.895,-42.578 43.786,-71.869c14.193,-29.291 27.479,-60.998 40.162,-95.121c12.683,-34.123 24.158,-67.038 34.727,-99.047c10.569,-31.405 19.326,-59.489 26.272,-83.646c7.247,-24.158 12.079,-40.163 15.098,-48.316c4.228,-9.965 11.777,-15.098 22.648,-15.098c12.079,-0 24.762,6.039 37.747,18.118c13.286,12.079 19.628,27.781 19.628,46.806c-0,14.192 -3.322,37.746 -9.663,70.963c-6.644,33.217 -16.307,70.963 -29.593,113.24c-12.985,42.276 -28.99,85.76 -48.316,130.753c-19.024,44.692 -41.068,85.761 -66.434,122.903c-25.064,37.143 -53.449,67.944 -85.156,92.102c-31.707,24.157 -66.132,36.236 -103.576,36.236c-51.336,0 -89.686,-23.554 -115.354,-70.963c-12.985,-23.554 -22.346,-51.939 -28.989,-85.458c-14.495,17.514 -29.895,33.821 -46.504,49.221c-34.727,32.311 -73.681,57.979 -117.165,77.909c-43.182,19.628 -90.592,29.291 -141.927,29.291c-31.103,0 -64.32,-4.831 -99.651,-14.192c-35.028,-9.664 -67.943,-27.48 -98.141,-52.846c-30.197,-25.667 -54.958,-61.3 -74.587,-106.596l-0.906,-2.114c-10.569,16.307 -21.742,32.311 -33.217,47.41c-28.083,37.143 -59.186,67.944 -92.705,92.102c-33.821,24.157 -69.755,36.236 -108.106,36.236c-25.064,0 -48.315,-5.133 -69.454,-16.004c-21.138,-10.569 -39.256,-23.856 -54.354,-40.767c-15.099,-16.306 -26.876,-34.726 -35.331,-54.053c-4.832,-11.173 -8.455,-22.043 -10.569,-32.613c-22.95,35.331 -48.618,64.623 -77.003,87.572c-28.687,23.252 -60.093,34.727 -94.517,34.727c-24.158,0 -44.39,-5.737 -60.999,-17.514c-16.608,-11.475 -30.197,-25.668 -40.766,-41.974c-10.569,-16.609 -18.118,-34.727 -22.648,-53.751c-4.529,-19.025 -7.247,-35.633 -8.455,-49.826c-9.059,22.044 -21.138,43.786 -36.237,64.924c-15.098,21.138 -32.009,40.163 -51.335,57.375c-19.024,17.212 -38.652,30.801 -58.885,41.672c-19.93,10.569 -39.558,15.703 -58.884,15.703c-67.34,-0 -121.393,-28.084 -162.159,-84.553c-14.797,-20.534 -26.876,-44.087 -36.539,-70.661c-3.321,5.435 -6.945,10.569 -10.267,15.401c-24.762,35.934 -51.637,65.226 -80.928,88.477c-28.99,23.252 -59.791,34.727 -92.102,34.727c-22.95,0 -44.088,-5.737 -62.508,-17.514c-18.722,-11.475 -34.425,-25.668 -46.806,-41.974c-12.683,-16.609 -22.346,-34.727 -29.593,-53.751c-6.945,-19.025 -10.871,-35.633 -12.079,-49.826c-9.059,22.044 -20.232,43.786 -33.821,64.924c-13.588,21.138 -28.687,40.163 -45.296,57.375c-16.608,17.212 -34.122,30.801 -52.845,41.672c-18.722,10.569 -37.444,15.703 -56.77,15.703c-33.217,-0 -64.018,-8.154 -92.706,-24.158c-28.687,-16.005 -53.751,-38.351 -74.889,-67.038c-9.965,-13.891 -19.024,-28.989 -26.875,-44.994c-4.53,6.644 -9.06,12.985 -13.891,19.024c-25.064,33.821 -53.147,60.999 -83.646,81.835c-30.802,20.534 -64.622,30.801 -102.067,30.801c-28.083,0 -53.449,-5.737 -76.097,-17.514c-22.648,-11.475 -43.182,-26.272 -61.3,-44.39c-18.119,-18.119 -34.425,-37.445 -48.92,-58.281c-14.796,-20.534 -28.385,-39.86 -40.766,-57.978c-12.683,-18.119 -23.856,-33.217 -34.123,-45.296c-9.965,-12.079 -19.93,-18.723 -30.197,-19.628l-0,36.236c-0,23.252 -0.302,50.731 -1.51,83.043c-0.906,32.311 -1.51,58.28 -1.51,78.512c0,9.965 -4.529,18.119 -13.588,24.158c-9.06,6.039 -19.629,10.569 -31.708,13.589c-12.078,3.019 -24.157,5.133 -36.84,6.039c-12.683,0.906 -22.346,1.51 -29.593,1.51c-9.966,0 -19.931,-0.302 -30.198,-0.604c-9.965,-0.604 -19.024,-2.114 -27.177,-4.529c-7.851,-2.718 -14.797,-6.644 -20.232,-12.381c-5.436,-5.436 -8.455,-13.287 -8.455,-23.252c-0,-8.153 0.603,-25.366 1.509,-52.241c0.604,-14.193 1.208,-29.896 1.812,-46.504c-12.079,14.495 -25.063,28.385 -38.652,41.37c-33.821,32.311 -71.87,57.979 -114.146,77.909c-42.276,19.628 -89.081,29.291 -140.417,29.291c-31.103,0 -64.32,-4.831 -99.65,-14.192c-35.029,-9.664 -67.944,-27.48 -98.141,-52.846c-26.574,-22.647 -48.92,-52.845 -67.34,-90.591c-6.04,9.965 -12.079,19.628 -18.722,29.291c-25.064,37.143 -53.449,67.944 -85.157,92.102c-31.707,24.157 -66.131,36.236 -103.576,36.236c-51.335,0 -89.686,-23.554 -115.353,-70.963c-13.891,-25.366 -23.856,-56.167 -30.198,-92.706Zm3610.68,-144.342c13.286,-3.926 28.083,-12.079 44.692,-24.158c16.608,-12.079 32.311,-26.574 47.409,-42.88c15.099,-16.609 28.084,-35.331 38.653,-56.167c10.569,-20.534 15.702,-41.974 15.702,-64.018c0,-6.945 -0.604,-16.306 -2.114,-27.781c-1.51,-11.777 -4.227,-23.252 -7.549,-34.727c-3.624,-11.777 -8.455,-21.44 -14.495,-29.593c-6.039,-8.154 -13.588,-12.079 -22.648,-12.079c-12.984,-0 -25.667,8.757 -37.746,26.573c-12.079,17.515 -22.648,39.257 -32.311,64.924c-9.663,25.668 -17.212,52.845 -22.648,81.231c-5.435,28.989 -8.455,54.355 -8.455,76.399l-0,20.534c-0,6.341 0.604,13.588 1.51,21.742Zm-1108.24,10.569c0,70.359 13.287,105.69 39.257,105.69c10.267,-0 20.534,-6.643 31.103,-20.534c10.569,-13.287 21.44,-30.499 32.311,-51.033c11.173,-20.837 21.742,-43.484 31.707,-67.944c10.267,-24.762 19.326,-48.618 27.177,-71.87c8.153,-23.251 14.495,-44.087 19.024,-62.508c4.53,-18.722 6.644,-32.009 6.644,-40.162c-0,-21.138 10.267,-36.841 30.197,-46.806c-18.118,0 -27.177,-5.435 -27.177,-16.608c-0,-3.02 -0.302,-6.946 -1.51,-12.079c-0.906,-5.134 -3.02,-10.267 -6.04,-16.005c-3.019,-5.435 -6.945,-10.267 -12.079,-14.192c-4.831,-3.926 -11.475,-6.04 -19.628,-6.04c-16.91,0 -34.425,9.361 -51.939,27.782c-17.514,18.722 -33.821,43.182 -48.316,73.379c-14.494,30.197 -26.573,64.32 -36.236,102.67c-9.663,38.351 -14.495,77.003 -14.495,116.26Zm-732.282,-16.609c-0,42.276 5.435,73.379 16.004,93.008c10.569,19.628 21.742,29.291 33.821,29.291c10.267,-0 20.232,-6.643 30.197,-20.534c10.267,-13.287 20.535,-30.499 31.104,-51.033c10.569,-20.837 20.232,-43.484 29.291,-67.944c9.059,-24.762 17.212,-48.618 24.158,-71.87c7.247,-23.251 12.682,-44.087 16.608,-62.508c4.228,-18.722 6.04,-32.009 6.04,-40.162c-0,-0.906 0.603,-6.039 1.509,-15.099c1.208,-9.059 2.114,-21.742 3.02,-37.746c-0.906,-0.906 -1.51,-3.02 -1.51,-6.04c0,-8.153 -4.227,-18.722 -12.683,-32.613c-8.757,-13.286 -20.534,-20.232 -35.632,-20.232c-16.911,0 -33.821,9.059 -50.43,27.178c-16.608,18.118 -31.707,41.672 -45.295,70.963c-13.589,29.292 -24.762,61.905 -33.217,98.141c-8.758,36.237 -12.985,71.87 -12.985,107.2Zm-649.24,-28.687c15.098,-3.02 32.613,-10.569 52.241,-22.648c19.628,-12.079 38.049,-26.272 54.959,-43.182c17.212,-16.306 31.405,-34.425 43.182,-53.449c11.475,-19.024 17.212,-37.143 17.212,-54.355c0,-11.173 -2.415,-20.836 -7.549,-29.291c-4.831,-8.758 -12.985,-12.985 -24.158,-12.985c-12.079,-0 -24.761,6.643 -38.35,19.628c-13.589,12.985 -26.574,30.197 -38.653,51.335c-12.078,21.138 -23.251,44.692 -33.82,70.36c-10.569,25.667 -19.025,50.429 -25.064,74.587Zm4035.86,38.954c-1.208,6.04 -2.718,12.985 -4.832,20.534c-4.831,16.911 -12.683,34.123 -23.252,51.638c-10.871,17.514 -25.063,33.821 -42.276,48.315c-17.212,14.797 -38.048,24.158 -62.508,28.084c-6.039,20.534 -13.891,39.558 -23.554,57.072c-9.965,17.515 -21.138,32.613 -33.821,45.296c-12.984,12.985 -26.875,22.95 -42.276,29.895c-15.098,7.248 -31.103,10.871 -47.711,10.871c-17.213,0 -34.727,-3.925 -52.543,-12.079c-17.817,-7.851 -34.123,-19.93 -48.92,-36.236c-14.495,-16.005 -26.574,-35.935 -36.237,-59.791c-9.361,-24.157 -14.192,-51.637 -14.192,-83.344c-0,-27.781 3.925,-54.355 11.777,-79.721c7.851,-25.365 19.024,-47.711 33.217,-67.339c14.494,-19.931 32.613,-35.633 53.751,-47.108c21.44,-11.777 45.597,-17.514 72.171,-17.514c47.711,-0 76.701,19.326 86.666,58.28c20.534,4.53 35.029,17.213 42.88,38.351c8.153,21.138 12.079,45.597 12.079,73.379l-0,9.965c-0,3.322 -0.302,6.945 -0.906,10.871c15.702,-4.53 28.083,-13.287 37.746,-26.272c9.362,-13.286 16.911,-26.875 22.95,-41.37c1.812,-4.529 3.624,-9.059 5.134,-13.589l-3.02,0c-8.455,-0.301 -17.514,-0.905 -27.781,-1.509c-5.436,-0.302 -9.663,-6.04 -12.683,-16.911c-3.02,-10.871 -4.53,-22.95 -3.926,-35.935c0.604,-12.984 2.718,-25.063 6.644,-35.934c3.925,-10.569 10.267,-16.005 19.326,-16.005c9.965,0 23.252,0.302 39.86,0.906c16.911,0.302 34.123,1.208 52.241,1.812c18.119,0.906 35.331,1.812 51.637,3.02c16.307,1.208 29.594,2.114 39.559,3.321c14.494,1.812 24.46,7.248 29.895,16.609c5.738,9.663 8.455,23.252 8.455,41.068c0,8.153 -0.906,19.326 -3.019,33.519c-1.812,14.193 -4.228,29.593 -6.644,46.202c-2.416,16.91 -4.831,33.821 -6.945,51.033c-2.416,17.212 -3.322,32.915 -3.322,47.41c0,3.925 0.302,8.153 1.208,12.984c0.604,4.832 2.114,9.06 3.624,13.287c1.812,4.228 3.925,7.55 6.643,10.267c3.02,3.02 6.04,4.228 9.361,4.228c6.644,-0 13.891,-4.53 21.44,-14.193c7.851,-9.361 15.703,-21.44 23.856,-35.633c6.341,-11.474 12.381,-23.553 18.722,-36.84c1.51,-27.178 6.342,-51.335 14.193,-73.379c9.965,-27.782 23.252,-51.034 39.86,-70.36c16.911,-19.024 36.237,-33.519 57.979,-43.786c22.044,-9.965 44.994,-14.796 68.85,-14.796c19.326,-0 35.632,2.717 48.617,8.757c13.287,5.737 23.856,12.683 31.707,20.836c8.153,7.851 13.891,16.306 17.213,25.064c3.321,8.455 4.831,15.702 4.831,22.044c0,2.717 -1.51,5.435 -4.831,8.153c-3.322,2.718 -7.248,5.435 -11.777,7.549c4.529,0 10.569,0.302 18.42,1.208c7.851,0.906 15.401,2.416 22.95,4.53c7.549,2.415 13.891,5.435 19.024,9.361c5.436,3.925 8.153,9.059 8.153,15.702c0,3.926 -0.604,11.777 -1.51,23.252c-0.604,11.777 -1.811,25.668 -3.321,41.37c-1.208,15.703 -2.416,32.915 -3.322,50.732c-0.604,18.118 -1.208,35.632 -1.208,52.241l0,20.232c0,7.549 -0.302,15.4 -0.906,22.95c15.703,-12.079 28.99,-29.896 40.163,-52.845c11.173,-22.95 20.836,-47.712 29.593,-74.286c8.455,-26.271 16.608,-52.241 23.554,-77.304c7.247,-25.366 14.494,-46.504 21.742,-63.716c2.415,-5.738 6.341,-8.456 12.682,-8.456c6.644,0 13.589,3.322 20.837,9.965c7.247,6.644 10.569,15.401 10.569,25.97c-0,14.495 -1.51,31.103 -4.53,50.429c-3.02,19.025 -7.549,38.955 -13.287,59.791c-5.737,20.836 -13.287,42.276 -22.346,63.716c-9.361,21.742 -19.93,41.974 -31.707,60.998c-12.079,18.723 -25.365,35.935 -40.464,50.732c-15.099,15.098 -31.707,26.875 -50.127,35.028c-0.302,7.852 -0.604,14.797 -0.604,20.836l-0,16.005c-0,29.895 -4.228,54.959 -12.079,74.889c-8.154,19.93 -18.723,35.935 -32.311,47.41c-13.287,11.777 -28.386,20.232 -45.296,25.063c-16.911,5.134 -34.727,7.55 -52.845,7.55c-21.742,-0 -40.464,-2.718 -55.865,-8.456c-15.703,-5.435 -28.385,-12.38 -38.351,-21.138c-9.965,-8.455 -17.514,-18.118 -22.043,-28.687c-4.832,-10.569 -7.248,-20.534 -7.248,-30.197c0,-16.005 5.738,-31.103 17.213,-44.994c11.173,-13.891 25.667,-26.574 42.88,-38.351c17.212,-11.474 35.934,-22.345 55.864,-32.009c19.931,-9.663 38.653,-18.118 55.865,-25.365c0.604,-15.099 0.906,-31.103 1.208,-48.618c0.302,-17.514 -0.302,-35.934 -1.208,-54.657c-3.925,9.361 -9.663,19.93 -17.212,31.707c-7.549,11.475 -16.609,22.648 -27.48,33.217c-10.871,10.569 -22.949,19.327 -36.236,26.272c-13.287,6.945 -27.48,10.267 -42.578,10.267c-12.079,-0 -24.46,-2.718 -36.841,-8.455c-12.683,-6.04 -23.856,-14.797 -33.821,-26.876c-5.737,-6.643 -10.569,-14.494 -15.098,-23.252c-2.718,3.926 -5.134,7.55 -7.852,11.173c-14.192,19.629 -30.197,35.331 -48.013,48.014c-17.817,12.381 -37.445,18.722 -59.187,18.722c-10.569,0 -21.138,-1.812 -31.707,-5.737c-10.569,-3.926 -19.93,-10.569 -28.385,-19.93c-8.153,-9.664 -15.099,-22.044 -20.232,-37.747c-5.134,-15.401 -7.852,-35.331 -7.852,-59.186c0,-13.287 0.906,-27.48 2.416,-42.277c1.51,-15.098 3.624,-29.593 5.738,-43.786c2.415,-14.192 4.529,-27.479 6.643,-39.558c2.416,-12.381 3.926,-22.648 5.134,-30.801c-16.609,-1.812 -31.104,-3.02 -42.88,-3.322l-1.812,-0.302Zm-314.353,96.027c-0,31.707 4.227,54.657 13.287,69.454c8.757,14.797 20.534,22.044 35.028,22.044c12.079,-0 22.95,-4.53 32.311,-13.589c9.663,-9.361 17.213,-21.742 23.554,-38.048c-16.306,-9.361 -27.781,-22.95 -34.727,-40.465c-6.945,-17.212 -10.267,-35.934 -10.267,-55.26c0,-25.064 4.53,-46.202 13.891,-63.415c-2.718,-3.321 -5.737,-6.039 -9.059,-8.757c-3.322,-2.416 -7.549,-3.623 -12.381,-3.623c-8.455,-0 -15.703,3.925 -22.044,11.475c-6.643,7.851 -12.079,18.118 -16.306,30.499c-4.53,12.683 -7.852,26.573 -9.966,42.276c-2.415,15.4 -3.321,31.103 -3.321,47.409Zm639.879,25.064c-0,10.871 3.019,20.232 8.757,27.782c5.737,7.549 12.079,11.173 18.722,11.173c7.851,-0 16.005,-6.342 25.064,-19.025c8.757,-12.683 16.91,-27.479 24.46,-43.786c7.549,-16.306 13.89,-32.613 18.722,-48.315c5.133,-15.703 7.549,-27.178 7.549,-33.821c0,-11.173 5.436,-19.628 16.005,-25.668l-3.322,0c-7.247,0 -10.871,-2.717 -10.871,-7.549c-0,-3.926 -2.416,-9.663 -7.247,-17.212c-4.53,-7.55 -11.173,-11.173 -19.629,-11.173c-9.361,-0 -18.722,5.133 -27.781,15.098c-9.059,9.965 -17.514,22.95 -25.064,38.955c-7.549,16.306 -13.588,34.424 -18.42,54.355c-4.53,19.93 -6.945,39.558 -6.945,59.186Zm23.252,284.156c-0.001,4.831 2.113,9.059 6.341,12.381c4.228,3.321 10.267,5.133 18.722,5.133c16.005,0 29.593,-7.247 40.766,-21.742c11.173,-14.494 17.817,-37.142 20.233,-67.642c-10.569,3.926 -21.139,8.758 -31.406,14.797c-10.267,5.738 -19.326,11.777 -27.479,18.118c-8.153,6.644 -14.495,13.287 -19.628,20.233c-4.832,6.945 -7.549,12.984 -7.549,18.722Zm-5252.81,-971.142c0,9.965 -2.114,21.44 -6.643,34.122c-4.53,12.381 -12.079,23.856 -22.648,34.425c-10.569,10.871 -24.158,19.628 -40.766,26.574c-16.609,6.945 -37.143,10.569 -61.301,10.569c-35.029,-0 -65.83,-8.153 -92.101,-25.064c-25.97,-16.306 -39.257,-40.464 -39.257,-71.567c0,-31.103 13.287,-57.073 39.257,-77.607c26.271,-20.836 58.582,-31.103 96.631,-31.103c38.35,-0 69.151,9.965 92.101,30.197c23.252,20.232 34.727,43.182 34.727,69.454Zm4007.17,-0c-0,9.965 -2.114,21.44 -6.644,34.122c-4.529,12.381 -12.079,23.856 -22.648,34.425c-10.569,10.871 -24.157,19.628 -40.766,26.574c-16.608,6.945 -37.142,10.569 -61.3,10.569c-35.029,-0 -65.83,-8.153 -92.102,-25.064c-25.969,-16.306 -39.256,-40.464 -39.256,-71.567c-0,-31.103 13.287,-57.073 39.256,-77.607c26.272,-20.836 58.583,-31.103 96.631,-31.103c38.351,-0 69.152,9.965 92.102,30.197c23.252,20.232 34.727,43.182 34.727,69.454Zm378.975,751.91c-0,9.965 -2.114,21.138 -6.644,33.217c-4.529,12.079 -10.871,23.252 -19.024,34.123c-7.851,10.569 -18.118,19.024 -30.801,25.668c-12.683,6.341 -27.48,9.663 -44.692,9.663c-24.158,-0 -45.598,-8.154 -64.924,-24.158c-19.024,-16.005 -28.687,-39.257 -28.687,-69.454c-0,-23.252 7.549,-44.088 22.044,-62.508c14.494,-18.722 38.048,-28.083 70.057,-28.083c27.178,-0 51.335,7.247 71.869,21.742c20.535,14.796 30.802,34.726 30.802,59.79Z" style="fill:#1d3210;"/></g><g><path d="M6000.07,1219.05l23.467,18.86c15.383,-11.603 30.248,-24.854 44.285,-39.277c15.383,-15.961 30.807,-32.368 45.592,-50.271c49.122,2.103 98.631,-21.793 138.085,-52.006c47.735,-36.65 81.432,-82.514 112.052,-125.119c30.253,-43.141 56.077,-84.989 80.158,-123.073c24.26,-37.884 45.842,-72.558 67.735,-100.841c21.68,-28.562 43.774,-50.167 63.756,-64.187c41.182,-28.238 69.011,-21.393 68.426,-22.869c0,-0 -6.104,-1.322 -18.221,-1.357c-11.94,-0.166 -31.003,3.044 -53.353,15.771c-45.279,24.97 -97.494,85.012 -148.248,159.472c-25.983,36.901 -53.513,77.047 -84.613,116.895c-31.015,39.287 -66.034,80.424 -105.671,109.446c-26.009,19.198 -55.737,32.959 -84.116,37.459c7.058,-11.587 13.701,-23.926 19.862,-37.173c12.442,-29.488 19.182,-63.709 12.387,-95.73c-5.708,-31.873 -29.822,-57.911 -56.055,-67.122c-28.101,-10.316 -63.88,-6.902 -95.152,16.97c-32.375,22.926 -49.111,70.791 -46.277,102.038c2.401,37.751 17.077,63.051 35.304,84.68c15.643,17.216 34.094,30.874 55.921,39.143c-9.252,11.681 -18.684,22.831 -28.042,33.283c-15.143,17.173 -31.051,32.34 -47.282,45.008Zm106.626,-122.025c10.106,-15.78 19.08,-31.924 26.103,-47.948c18.988,-45.427 8.991,-92.13 -28.155,-104.221c-16.793,-5.966 -38.139,-2.763 -53.109,9.26c-14.947,12.296 -22.564,29.218 -21.276,53.144c2.378,39.657 37.595,79.805 75.915,89.634l0.522,0.131Z" style="fill:#1d3210;stroke:#003e1f;stroke-width:4.18px;"/></g><g><path d="M738.962,288.129l10.258,28.305c-15.954,10.804 -33.3,20.585 -51.488,29.205c-20.077,9.395 -40.59,18.685 -62.312,26.886c-13.894,47.163 -52.516,86.285 -93.864,113.849c-50.117,33.319 -104.413,50.375 -154.631,65.574c-50.606,14.677 -98.556,25.582 -142.381,36.054c-43.694,10.706 -83.484,19.917 -117.327,31.488c-34.038,11.28 -61.627,25.2 -81.355,39.575c-40.038,29.839 -42.56,58.385 -43.767,57.355c-0,0 0.723,-6.204 4.608,-17.681c3.704,-11.353 12.906,-28.353 32.176,-45.387c38.27,-34.772 111.971,-64.766 198.843,-88.716c43.321,-12.655 90.211,-25.724 137.976,-42.268c47.206,-16.645 97.457,-36.479 137.737,-64.603c26.576,-18.403 49.211,-42.084 62.646,-67.483c-13.247,2.931 -27.071,5.227 -41.599,6.774c-31.926,2.238 -66.489,-2.45 -94.593,-19.234c-28.315,-15.708 -45.156,-46.946 -45.39,-74.748c-0.675,-29.927 14.125,-62.68 46.827,-84.553c32.163,-23.221 82.869,-23.58 111.52,-10.795c34.947,14.48 54.143,36.548 68.716,60.789c11.233,20.37 18.191,42.246 18.957,65.574c14.045,-4.977 27.646,-10.297 40.563,-15.772c21.147,-8.777 40.644,-18.925 57.88,-30.188Zm-149.949,61.439c-18.2,4.461 -36.378,7.732 -53.813,9.196c-49.127,3.279 -90.088,-21.284 -89.519,-60.343c-0.215,-17.82 9.719,-36.983 25.937,-47.262c16.469,-10.167 34.945,-11.904 57.169,-2.948c36.758,15.074 63.36,61.381 60.27,100.821l-0.044,0.536Z" style="fill:#1d3210;stroke:#003e1f;stroke-width:4.18px;"/></g><g><path d="M2058.26,2720.36l0,-313.038c-468.807,264.243 -1072.28,475.426 -1459.4,475.426c-94.244,0 -247.419,-2.902 -247.419,-117.866c-0,-218.103 748.209,-869.458 1528.81,-1081.66c-379.961,-8.842 -1711.45,695.568 -1711.45,1131.8c0,232.829 282.785,288.829 477.224,288.829c394.964,0 949.84,-152.194 1412.23,-383.486Z" style="fill:#1d3210;stroke:#003e1f;stroke-width:4.14px;"/></g><g><path d="M1970.72,2460.99l-0,301.696c559.383,-244.288 1036.65,-607.665 1036.65,-975.833c0,-327.153 -344.644,-436.202 -677.496,-527.574c-297.535,-82.524 -580.313,-156.207 -580.313,-327.147c-0,-56.92 30.438,-120.267 82.425,-185.936c93.354,62.199 170.162,96.756 255.551,119.49c84.833,23.215 195.599,21.282 320.379,-5.02c-6.544,21.659 -10.31,43.707 -10.31,65.57c-0,64.842 88.414,88.421 147.316,88.421c142.686,-0 327.295,-79.425 486.157,-199.162c22.042,-16.602 43.59,-33.97 64.459,-52.042c69.583,34.094 134.227,108.475 249.191,254.05c124.657,158.986 246.413,190.931 539.07,139.648c283.273,-50.282 414.537,-58.408 495.542,-32.266c38.28,11.861 135.03,66.731 217.085,123.145c209.8,144.174 376.133,217.708 579.82,254c121.756,21.826 368.477,-4.328 492.332,-52.19c161.332,-63.409 383.974,-207.114 367.056,-237.158c-5.063,-8.144 -18.399,-3.84 -33.896,9.379c-44.454,39.441 -200.538,132.684 -287.409,170.834c-349.09,157.115 -732.015,94.959 -1115.25,-179.873c-206.095,-148.916 -267.652,-161.203 -552.221,-113.667c-470.536,78.82 -571.979,59.186 -712.133,-135.79c-86.624,-121.786 -145.279,-189.116 -212.516,-223.883c144.476,-132.764 250.734,-297.374 253.389,-455.959c2.964,-226.945 -176.767,-291.787 -444.79,-282.945c-333.592,11.428 -980.773,251.574 -1254.48,589.828c-36.799,-30.414 -81.5,-67.966 -137.562,-115.34c-117.248,-98.991 -246.104,-167.815 -364.34,-195.809c-102.8,-22.382 -399.656,-11.169 -438.801,19.023c-12.78,8.594 -21.733,24.011 -20.807,32.599c1.05,10.015 9.694,11.991 24.635,3.174c75.943,-41.336 303.277,-50.962 444.173,-18.14c99.651,22.715 254.995,111.889 371.378,212.424c36.613,31.544 70.633,60.192 102.492,86.26c-67.854,91.057 -108.234,188.807 -108.234,290.805c0,259.366 400.583,312.415 754.118,409.677c288.644,79.579 533.143,188.628 533.143,371.36c0,232.095 -390.951,536.323 -865.809,774.351Zm1038.93,-1720.8c-32.538,-3.05 -69.213,-1.593 -113.544,2.402c-83.043,67.823 -137.253,124.459 -128.238,136.487c11.237,14.991 116.631,-45.035 235.237,-133.962c2.223,-1.643 4.384,-3.291 6.545,-4.927Zm-239.745,-15.714c210.356,-116.593 482.515,-326.782 508.508,-508.551c14.695,-94.311 -64.829,-120.835 -176.767,-120.835c-32.415,-0 -70.695,2.945 -108.975,5.89c-298.091,32.625 -901.867,343.422 -1141.61,622.12c10.434,6.575 20.93,12.935 32.106,19.541c149.848,86.859 227.087,107.616 381.504,98.479c61.248,-3.341 105.702,-8.336 158.121,-19.949c37.231,-82.062 106.938,-152.855 148.614,-177.885c-44.146,50.109 -61.866,112 -61.866,153.262c-0,0.648 0.062,1.278 0.123,1.877c22.536,-6.6 47.48,-14.244 75.758,-23.141c80.882,-25.716 135.03,-41.046 184.485,-50.808Zm274.135,-10.817c96.997,-76.566 163.493,-143.624 153.553,-156.837c-11.237,-14.997 -116.631,45.028 -235.238,133.956c-7.347,5.488 -14.509,10.959 -21.548,16.386c39.083,-0.698 72.794,1.037 103.233,6.495Z" style="fill:#1d3210;"/></g></svg>